<?xml version="1.0" standalone="no"?>
<!DOCTYPE svg PUBLIC "-//W3C//DTD SVG 20010904//EN"
 "http://www.w3.org/TR/2001/REC-SVG-20010904/DTD/svg10.dtd">
<svg version="1.0" xmlns="http://www.w3.org/2000/svg"
 width="5000.000000pt" height="3000.000000pt" viewBox="0 0 5000.000000 3000.000000"
 preserveAspectRatio="xMidYMid meet">

<g transform="translate(0.000000,3000.000000) scale(0.100000,-0.100000)"
fill="#000000" stroke="none">
<path d="M23053 24179 c-10 -4 -44 -5 -75 -3 -37 3 -58 0 -58 -6 0 -6 -5 -8
-10 -5 -6 4 -17 2 -25 -5 -7 -6 -19 -10 -27 -9 -30 4 -68 -2 -68 -10 0 -5 8
-7 19 -4 10 3 22 0 25 -6 5 -7 -10 -10 -44 -10 -33 1 -47 5 -38 10 10 7 9 9
-4 9 -21 0 -29 -12 -18 -30 13 -20 -15 -44 -37 -31 -16 9 -17 10 -1 11 9 0 20
5 24 11 4 8 0 9 -15 4 -12 -4 -21 -2 -21 4 0 6 8 11 18 12 9 0 12 3 6 5 -13 5
-80 -22 -89 -36 -3 -5 -12 -10 -18 -10 -7 0 -6 4 3 10 9 6 10 10 3 10 -6 0
-19 -7 -28 -16 -9 -9 -19 -14 -22 -11 -3 4 -24 -4 -47 -15 -22 -12 -45 -21
-49 -20 -5 1 -6 -2 -2 -8 3 -5 -3 -10 -13 -10 -11 0 -25 -7 -32 -15 -7 -8 -17
-12 -24 -8 -7 5 -7 2 1 -8 10 -12 8 -15 -10 -14 -24 0 -36 -17 -16 -24 7 -2 9
1 4 9 -6 9 -3 10 12 2 19 -11 29 -52 12 -52 -5 0 -9 4 -9 10 0 5 -13 16 -30
25 -28 15 -30 14 -65 -22 -19 -20 -35 -40 -35 -44 0 -5 -8 -5 -17 -2 -16 6
-16 5 -4 -10 7 -9 10 -17 5 -17 -5 0 -2 -5 6 -10 10 -6 12 -12 4 -20 -7 -7
-17 0 -33 22 -13 18 -18 27 -10 21 18 -18 34 -16 20 1 -10 11 -8 17 6 25 10 6
13 11 6 11 -6 0 -31 -19 -55 -42 -24 -23 -47 -41 -52 -40 -5 2 -5 -3 1 -10 6
-7 11 -17 11 -21 0 -5 3 -11 6 -14 3 -3 4 4 1 16 -3 14 1 21 12 21 13 0 13 -2
2 -17 -8 -9 -14 -18 -14 -21 0 -10 -45 -11 -51 -1 -4 6 -11 6 -20 -2 -7 -6
-11 -16 -7 -22 4 -6 8 -25 9 -42 1 -16 3 -30 4 -30 2 0 4 -10 5 -22 1 -12 -1
-22 -4 -21 -15 3 -41 -16 -41 -29 0 -11 -6 -14 -22 -9 -13 4 -29 8 -36 10 -7
1 -17 8 -22 14 -7 8 -7 9 1 3 7 -6 26 -4 49 4 21 7 40 12 42 9 3 -2 3 9 0 24
-4 31 -26 38 -52 18 -12 -9 -13 -8 -5 4 6 9 2 7 -7 -5 -10 -11 -30 -32 -45
-47 -16 -16 -24 -28 -19 -28 5 0 3 -6 -3 -14 -6 -7 -8 -22 -5 -32 6 -18 6 -18
-8 0 -10 13 -17 15 -22 8 -4 -7 -4 -12 0 -12 4 0 -3 -11 -15 -24 -12 -13 -21
-30 -19 -37 2 -8 -3 -13 -11 -11 -11 2 -10 -2 3 -22 9 -15 16 -45 16 -73 -1
-42 -2 -46 -14 -31 -7 10 -17 14 -21 10 -4 -4 -3 3 4 15 13 26 14 44 1 23 -8
-12 -10 -11 -10 8 0 28 -16 29 -30 1 -9 -15 -8 -24 1 -35 10 -12 9 -13 -6 -8
-12 5 -16 4 -11 -4 4 -6 0 -24 -9 -39 -15 -27 -16 -27 -10 -3 4 18 3 21 -3 10
-5 -8 -12 -33 -15 -55 -3 -22 -3 -32 -1 -22 3 9 10 17 15 17 6 0 5 -8 -1 -20
-8 -15 -8 -36 1 -78 13 -64 22 -143 13 -126 -3 7 -15 10 -27 7 -13 -3 -18 -1
-11 4 17 12 23 72 7 66 -16 -6 -16 2 -2 28 6 12 7 28 3 37 -4 9 -6 22 -6 28 1
6 -5 11 -13 11 -8 0 -14 -5 -13 -11 1 -6 -3 -20 -9 -31 -6 -11 -11 -23 -12
-27 -1 -5 -1 -9 -2 -10 0 -2 -2 -10 -4 -18 -2 -8 -7 -24 -11 -34 -5 -14 -4
-17 5 -12 9 6 11 -1 5 -31 -7 -42 -14 -56 -14 -30 0 10 -5 17 -11 17 -7 0 -8
-12 -4 -32 5 -26 4 -30 -5 -18 -9 12 -11 4 -7 -32 3 -28 0 -48 -5 -48 -6 0 -7
-11 -4 -25 4 -15 2 -25 -5 -25 -7 0 -8 -11 -4 -31 4 -17 3 -29 -1 -26 -5 3 -8
-1858 -6 -4180 2 -3977 1 -4186 -15 -4199 -10 -7 -15 -16 -10 -20 4 -4 7 -2 7
4 0 7 4 12 10 12 6 0 6 -9 1 -22 -5 -13 -16 -22 -24 -20 -9 1 -21 -7 -27 -18
-11 -21 -70 -30 -70 -10 0 13 34 30 59 30 12 0 21 6 21 14 0 22 -31 28 -52 9
-10 -9 -38 -18 -61 -19 -82 -5 -84 -6 -52 -14 23 -6 14 -8 -40 -9 -130 0 -131
-1 -115 -12 12 -8 10 -10 -9 -5 -13 3 -37 -2 -52 -10 -34 -17 -53 -18 -43 -2
5 8 2 9 -12 3 -10 -5 -32 -9 -49 -9 -16 0 -33 -5 -37 -10 -4 -6 -14 -4 -24 5
-11 9 -15 9 -10 2 5 -10 -14 -13 -86 -15 -51 -1 -106 -1 -123 0 -25 1 -27 0
-10 -8 18 -8 17 -9 -8 -9 -16 -1 -38 4 -49 10 -15 8 -19 8 -14 0 5 -8 -6 -11
-36 -10 -24 1 -71 1 -105 -1 -34 -1 -85 4 -112 11 -49 12 -51 12 -71 -11 l-21
-24 -6 22 c-6 25 -4 25 -98 23 -54 -2 -67 1 -55 9 12 9 9 10 -12 6 -16 -4 -28
-2 -28 4 0 5 -8 10 -17 10 -15 0 -16 -2 -3 -10 24 -16 -5 -12 -50 6 -23 9 -44
14 -47 10 -4 -3 1 -6 10 -6 9 0 18 -4 21 -8 2 -4 -12 -6 -32 -4 -54 5 -60 9
-32 20 24 10 23 11 -12 11 -20 1 -48 5 -62 11 -14 5 -26 6 -26 1 0 -5 16 -12
36 -16 20 -3 34 -9 30 -12 -11 -11 -76 8 -76 22 0 8 -8 15 -17 16 -10 0 -27 2
-38 4 -11 1 -47 6 -80 10 -33 4 -69 11 -80 16 -14 6 -8 7 20 4 38 -5 38 -4 10
5 -29 10 -112 4 -101 -8 10 -9 -15 -32 -36 -32 -10 0 -21 7 -24 15 -4 8 -13
15 -22 15 -8 0 -13 3 -10 6 4 3 23 1 45 -5 34 -9 36 -9 19 4 -19 14 -18 15 10
16 16 0 23 3 16 6 -6 2 -9 9 -6 15 4 6 1 8 -7 6 -8 -3 -27 1 -42 9 -16 8 -31
12 -34 9 -3 -3 2 -8 11 -12 25 -10 19 -24 -11 -24 -22 0 -25 2 -13 10 14 9 7
15 -14 11 -5 -1 -6 6 -2 15 5 14 4 15 -9 4 -10 -8 -15 -9 -15 -1 0 6 -5 11
-11 11 -5 0 -7 -6 -4 -12 3 -7 -2 -3 -11 10 -17 23 -48 29 -59 12 -7 -12 -85
-2 -100 12 -6 6 4 7 29 2 31 -5 37 -4 31 6 -5 9 -4 11 4 6 6 -4 9 -12 6 -17
-7 -10 8 -13 18 -3 8 8 -12 26 -45 41 -17 8 -28 9 -28 3 0 -6 -10 -10 -22 -10
-13 0 -36 -8 -52 -18 -29 -18 -30 -18 -58 10 -17 16 -40 28 -55 28 l-26 0 23
-20 c13 -11 29 -20 35 -20 7 0 24 -9 38 -20 26 -21 42 -26 33 -11 -4 5 3 7 15
4 12 -4 16 -9 10 -13 -26 -15 182 -97 269 -105 43 -4 46 -6 18 -19 -36 -15
-25 -27 47 -55 91 -34 96 -35 90 -19 -4 9 3 14 20 16 14 1 25 -4 25 -11 0 -6
5 -4 11 6 5 9 20 17 33 17 13 0 29 7 36 15 7 8 21 15 32 15 16 0 18 -3 9 -13
-6 -8 -8 -17 -4 -20 12 -13 -13 -7 -26 6 -11 10 -13 10 -7 0 5 -9 0 -13 -14
-13 -11 0 -32 -11 -45 -24 l-24 -24 25 -17 c13 -8 30 -15 37 -14 6 1 58 1 113
0 l102 -1 4 -30 c3 -16 0 -30 -5 -30 -6 0 -7 -3 -3 -7 4 -4 41 -8 82 -8 43 -1
78 -6 82 -12 4 -6 37 -11 74 -11 76 -1 88 -5 88 -33 0 -10 3 -19 8 -20 42 -5
195 -3 198 3 3 4 20 8 37 7 18 0 26 -3 18 -6 -7 -3 -22 -14 -32 -24 -17 -17
-16 -18 34 -28 29 -6 143 -11 255 -12 111 -2 202 -6 202 -11 0 -10 154 -11
164 -1 3 4 28 8 54 9 272 13 312 17 323 30 6 8 15 11 20 8 5 -3 6 2 3 11 -5
13 -1 15 20 11 14 -2 28 0 31 5 10 15 25 10 25 -7 0 -12 7 -14 33 -9 17 4 37
11 42 15 6 5 40 8 77 8 37 -1 73 3 80 9 7 6 22 13 33 16 18 4 18 5 -2 6 -13 0
-23 6 -23 11 0 10 27 15 63 12 9 -1 17 3 17 8 0 6 -6 10 -12 10 -15 0 -16 19
-23 483 -5 272 -3 318 9 323 13 5 14 480 12 3789 -2 2081 -1 3787 3 3790 6 7
7 10 11 53 2 23 4 21 11 -13 6 -30 7 -22 4 35 -2 41 -6 84 -10 95 -6 16 -5 17
4 5 7 -10 11 -11 11 -2 0 6 6 12 14 12 19 0 30 48 15 66 -9 11 -8 15 5 20 11
4 16 18 16 45 0 37 14 53 22 27 3 -7 11 9 18 35 8 26 18 47 22 47 4 0 8 10 8
22 0 30 -16 12 -28 -32 -10 -33 -10 -33 -11 -7 -1 17 -7 27 -16 27 -17 0 -19
9 -5 30 8 13 10 12 10 -2 0 -10 5 -18 10 -18 6 0 10 7 10 15 0 17 36 39 50 30
6 -3 10 -1 10 4 0 6 -7 11 -16 11 -8 0 -12 5 -9 11 4 6 12 8 19 6 6 -2 25 20
43 49 22 38 27 54 17 54 -8 0 -14 7 -14 15 0 17 12 19 26 5 8 -8 15 -6 24 5 7
9 8 15 2 15 -6 0 -13 -6 -16 -12 -3 -7 -5 -4 -3 6 1 11 5 18 8 15 11 -6 49 32
50 50 1 26 42 93 64 105 11 6 23 15 26 20 4 5 12 6 18 2 7 -5 8 -1 4 10 -5 13
-3 16 10 11 20 -7 22 4 6 20 -9 9 -5 14 15 19 15 3 25 12 23 18 -3 7 1 20 9
31 8 10 14 13 14 7 0 -7 5 -12 11 -12 6 0 9 7 6 14 -4 10 -1 13 8 9 8 -3 12
-10 8 -16 -3 -6 -1 -7 6 -3 6 4 9 12 5 17 -3 6 2 9 12 7 13 -2 18 2 16 14 -2
13 2 16 15 11 15 -6 16 -4 5 9 -10 13 -10 17 5 24 10 4 27 8 38 8 14 1 20 8
19 24 0 12 3 22 8 22 4 0 8 7 8 15 0 8 7 15 15 15 8 0 15 5 15 10 0 6 4 10 10
10 5 0 7 -7 3 -16 -5 -14 -2 -14 28 1 19 10 43 25 54 35 24 20 109 55 100 40
-11 -18 15 -10 32 10 10 11 29 20 43 20 19 0 22 2 10 10 -8 5 -12 10 -10 12
33 21 48 24 84 16 30 -7 42 -5 56 7 9 8 28 15 41 15 14 0 33 6 44 14 11 7 38
17 60 21 22 4 668 8 1435 8 l1395 1 -1195 6 c-908 4 -430 6 1990 10 1752 3
3228 3 3280 0 52 -3 -555 -7 -1350 -10 l-1445 -5 2003 -3 c1358 -1 2002 1
2002 8 0 13 117 11 182 -2 30 -6 45 -14 41 -21 -4 -7 0 -8 12 -3 22 8 91 -4
75 -14 -6 -4 8 -10 33 -13 25 -4 64 -13 88 -21 39 -14 45 -14 52 0 10 18 28 9
20 -11 -3 -10 1 -15 14 -15 10 0 25 -6 32 -12 12 -11 13 -10 7 6 -6 16 -4 17
9 6 13 -11 18 -11 28 0 10 10 9 12 -5 7 -9 -3 -19 0 -22 9 -4 10 -2 13 7 8 6
-4 -8 14 -32 39 -24 25 -48 44 -53 41 -4 -3 -6 -9 -3 -14 3 -5 1 -11 -5 -15
-6 -4 -8 -11 -5 -16 7 -10 -15 -12 -39 -3 -24 9 -19 24 8 24 28 0 43 35 18 45
-21 8 -30 -4 -12 -15 8 -6 10 -10 4 -10 -5 0 -15 5 -21 11 -8 8 -17 8 -32 -1
-12 -6 -26 -8 -31 -5 -6 3 -10 1 -10 -4 0 -6 -9 -11 -20 -11 -11 0 -20 6 -20
13 0 8 11 12 31 11 19 -1 32 3 36 13 3 8 11 12 18 9 6 -2 18 0 26 5 12 7 12 9
-1 10 -8 1 -24 1 -35 0 -11 -1 -29 5 -40 13 -11 9 -15 16 -8 16 6 0 15 -4 18
-10 3 -5 14 -10 23 -9 9 0 0 9 -21 18 -20 10 -34 21 -30 25 5 4 3 7 -2 6 -24
-5 -56 1 -50 10 3 5 -8 16 -26 25 -17 9 -29 13 -26 8 3 -5 -7 -8 -21 -7 -45 2
-52 4 -52 14 0 6 8 5 20 -2 16 -10 22 -10 32 0 11 11 9 12 -6 6 -13 -5 -17 -4
-12 4 5 8 1 10 -10 5 -10 -3 -15 -2 -12 3 4 5 -8 10 -25 11 -18 2 -33 7 -35
13 -2 5 -20 10 -40 10 -28 0 -33 3 -22 10 21 13 12 12 -49 -6 -29 -8 -55 -13
-57 -11 -3 2 17 10 43 17 l47 14 -35 12 c-44 16 -52 17 -43 2 5 -8 2 -9 -10
-5 -10 4 -20 7 -22 7 -3 0 -3 4 0 8 2 4 -3 8 -12 8 -29 1 -96 12 -116 20 -14
5 -17 4 -12 -4 4 -7 2 -12 -3 -12 -6 0 -11 4 -11 8 0 5 -21 9 -47 10 -27 1
-66 4 -88 7 -31 4 -36 3 -20 -5 17 -9 16 -9 -5 -4 -14 4 -1618 9 -3565 10
-1947 2 -3719 5 -3937 6 -219 2 -406 0 -415 -3z m95 -6 c-10 -2 -28 -2 -40 0
-13 2 -5 4 17 4 22 1 32 -1 23 -4z m7737 -23 c4 -7 -643 -10 -1932 -11 -5731
-4 -5732 -4 -5745 9 -9 9 781 12 3829 12 2551 0 3844 -3 3848 -10z m-7690 -30
c0 -12 -21 -15 -124 -16 -68 -1 -137 4 -153 10 -44 16 -14 21 139 21 116 0
138 -2 138 -15z m8092 -2 c6 -5 24 -6 40 -3 26 5 27 5 4 -5 -24 -11 -91 5 -91
22 0 8 29 0 47 -14z m-54 -30 c-15 -4 -29 -5 -32 -3 -2 3 1 5 8 5 7 0 10 4 7
9 -3 4 -21 7 -40 4 -19 -2 -37 1 -40 5 -3 5 8 9 25 10 17 0 33 3 36 5 2 3 18
-2 33 -11 l29 -17 -26 -7z m-8357 20 c5 -8 2 -9 -9 -5 -10 4 -20 0 -26 -10 -8
-15 -13 -15 -50 -3 -23 7 -39 15 -36 18 2 3 18 -1 35 -8 27 -11 34 -11 48 4
19 19 28 20 38 4z m4171 -20 c-7 -4 855 -7 1915 -5 1059 1 1924 -1 1921 -6 -5
-8 -7551 -8 -7620 0 -24 3 -43 8 -43 12 0 3 864 6 1919 6 1056 0 1914 -3 1908
-7z m-4483 -36 c3 -5 -8 -9 -25 -9 -19 0 -25 3 -17 9 17 10 35 10 42 0z m-74
-23 c-11 -8 -6 -9 20 -4 28 5 32 4 20 -5 -12 -10 -11 -11 7 -7 13 3 25 1 28
-3 10 -16 -12 -19 -44 -7 -29 11 -34 10 -50 -11 -17 -23 -31 -21 -31 4 0 8 7
11 18 7 9 -3 14 -3 10 2 -9 10 10 35 26 35 6 0 4 -5 -4 -11z m9079 -24 c12 7
61 -15 61 -27 0 -4 -9 -8 -19 -8 -23 0 -34 -23 -18 -39 8 -8 5 -11 -13 -11
-13 0 -21 3 -17 6 8 8 -26 42 -38 37 -5 -3 -1 3 9 11 20 16 20 16 0 32 -18 14
-18 15 4 4 12 -6 26 -8 31 -5z m114 -51 c-6 -17 -34 -15 -40 3 -2 6 4 13 14
15 25 6 33 0 26 -18z m-9255 2 c-7 -8 -15 -12 -17 -11 -5 6 10 25 20 25 5 0 4
-6 -3 -14z m126 -12 c8 -22 -1 -31 -16 -16 -7 7 -20 12 -30 12 -10 0 -18 5
-18 10 0 17 57 11 64 -6z m-79 -24 c3 -5 -1 -10 -9 -10 -8 0 -18 5 -21 10 -3
6 1 10 9 10 8 0 18 -4 21 -10z m529 1 c15 -6 16 -10 7 -16 -7 -4 -16 -3 -20 3
-3 5 -15 12 -26 15 l-20 5 20 0 c11 0 29 -3 39 -7z m566 -2 c-63 -4 -136 -10
-162 -13 -44 -5 -58 1 -42 16 3 4 76 6 162 6 l157 0 -115 -9z m7897 -5 c-3 -3
-12 -4 -19 -1 -8 3 -5 6 6 6 11 1 17 -2 13 -5z m-7788 -8 c-2 -2 -60 -6 -129
-8 -69 -3 -102 -2 -75 2 53 7 211 12 204 6z m7914 -3 c-7 -2 -19 -2 -25 0 -7
3 -2 5 12 5 14 0 19 -2 13 -5z m-9273 -23 c0 -11 -7 -20 -15 -20 -8 0 -15 -4
-15 -10 0 -5 -7 -10 -15 -10 -8 0 -15 5 -15 10 0 6 7 10 15 10 8 0 19 9 25 20
6 11 13 20 15 20 3 0 5 -9 5 -20z m784 14 c17 -7 21 -29 7 -38 -5 -3 -23 -3
-40 0 -34 7 -42 30 -13 37 27 7 29 7 46 1z m8765 -28 c9 -11 9 -16 -1 -22 -7
-4 -10 -4 -6 1 4 4 3 14 -3 22 -6 7 -9 13 -6 13 2 0 10 -6 16 -14z m-88 -44
c-7 -2 -18 1 -23 6 -8 8 -4 9 13 5 13 -4 18 -8 10 -11z m-9575 -51 c-12 -19
-24 -12 -19 10 4 13 9 17 15 11 6 -6 7 -15 4 -21z m550 -12 c7 -12 -15 -31
-28 -23 -4 3 -8 12 -8 20 0 17 26 19 36 3z m-112 -75 c9 -24 7 -27 -9 -10 -17
17 -19 26 -6 26 5 0 12 -7 15 -16z m-644 -28 c0 -2 -7 -9 -15 -16 -13 -11 -14
-10 -9 4 5 14 24 23 24 12z m550 -61 c0 -10 -10 -15 -29 -15 -17 0 -33 -4 -36
-10 -3 -5 -15 -10 -26 -10 -14 0 -19 -7 -19 -24 0 -30 -17 -43 -23 -19 -2 10
-3 6 -1 -9 4 -32 -11 -38 -19 -8 -8 31 3 60 24 60 12 0 19 7 19 19 0 24 13 29
68 30 31 1 42 -3 42 -14z m-650 -112 c-8 -15 -22 -28 -30 -30 -12 -4 -12 -2
-2 5 7 5 11 20 9 33 -2 13 -2 18 0 12 8 -22 26 -14 20 8 -5 17 -3 19 6 10 9
-9 8 -18 -3 -38z m30 -55 c0 -56 -14 -96 -24 -68 -12 36 -12 91 0 86 7 -3 10
3 7 15 -3 10 0 19 6 19 7 0 11 -20 11 -52z m417 6 c7 -20 -22 -45 -43 -37 -14
5 -19 35 -7 46 12 13 44 7 50 -9z m-546 -37 c-10 -9 -11 -8 -5 6 3 10 9 15 12
12 3 -3 0 -11 -7 -18z m461 -82 c3 -49 -14 -90 -26 -59 -8 21 3 104 14 104 4
0 10 -20 12 -45z m-357 -15 c-2 -26 -11 -34 -31 -26 -15 6 -15 8 1 26 23 25
32 25 30 0z m-95 -20 c0 -6 -4 -10 -10 -10 -5 0 -10 6 -10 13 0 8 -4 7 -10 -3
-8 -12 -10 -11 -10 8 0 20 3 21 20 12 11 -6 20 -15 20 -20z m467 -42 c-3 -8
-6 -5 -6 6 -1 11 2 17 5 13 3 -3 4 -12 1 -19z m-87 -47 c0 -5 -7 -14 -15 -21
-16 -14 -18 -10 -9 14 6 17 24 22 24 7z m-470 -30 c0 -6 -5 -13 -10 -16 -6 -4
-8 -10 -5 -15 3 -4 -2 -10 -9 -13 -12 -5 -13 -1 -4 24 9 27 28 40 28 20z m477
-33 c-3 -8 -6 -5 -6 6 -1 11 2 17 5 13 3 -3 4 -12 1 -19z m-59 -26 c2 -14 -2
-22 -12 -22 -17 0 -39 34 -29 44 14 13 38 0 41 -22z m-398 -77 c0 -8 -6 -15
-12 -15 -9 0 -8 -4 2 -10 11 -7 11 -10 2 -10 -7 0 -11 -4 -8 -9 3 -5 -3 -11
-14 -14 -13 -3 -20 0 -20 9 0 8 4 14 10 14 5 0 12 11 16 25 7 27 24 34 24 10z
m-78 -103 c-5 -16 -7 -42 -5 -58 3 -16 3 -26 -1 -23 -8 8 -16 111 -9 122 13
21 25 -13 15 -41z m82 32 c9 -3 16 -15 16 -26 0 -10 -4 -16 -10 -13 -10 6 -14
-6 -11 -35 2 -13 1 -13 -8 0 -10 14 -15 80 -7 80 2 0 11 -3 20 -6z m-42 -157
c-2 -4 -8 -5 -13 -2 -11 7 -12 46 -2 72 6 14 9 8 13 -22 3 -22 4 -43 2 -48z
m-55 11 c-3 -8 -6 -5 -6 6 -1 11 2 17 5 13 3 -3 4 -12 1 -19z m333 -48 c0 -16
-4 -32 -10 -35 -6 -4 -10 10 -10 35 0 25 4 39 10 35 6 -3 10 -19 10 -35z m57
-12 c-3 -7 -5 -2 -5 12 0 14 2 19 5 13 2 -7 2 -19 0 -25z m-79 -127 c2 -14 0
-21 -7 -17 -6 4 -9 -8 -8 -33 1 -39 -7 -60 -19 -48 -10 9 -17 94 -10 112 9 24
40 14 44 -14z m-19 -935 c1 -470 -2 -797 -7 -800 -14 -8 -24 525 -21 1089 1
270 4 493 6 498 2 4 8 7 12 7 5 0 9 -357 10 -794z m-3 -2731 c0 -795 -4 -1445
-8 -1445 -5 0 -8 -108 -8 -241 0 -157 3 -238 10 -234 7 4 10 -50 10 -155 0
-103 -4 -159 -10 -155 -6 4 -11 -83 -12 -242 -2 -136 -2 688 -2 1832 1 1144 2
2081 3 2083 15 30 18 -228 17 -1443z m-2496 -4459 c0 -2 -7 -7 -16 -10 -8 -3
-12 -2 -9 4 6 10 25 14 25 6z m-85 -16 c7 -12 -2 -12 -30 0 -19 8 -19 9 2 9
12 1 25 -3 28 -9z m4 -36 c2 -2 2 -7 -1 -10 -4 -3 -19 2 -35 10 l-28 16 30 -6
c17 -4 32 -8 34 -10z m311 -34 c0 -5 -5 -10 -11 -10 -5 0 -7 5 -4 10 3 6 8 10
11 10 2 0 4 -4 4 -10z m10 -51 c0 -5 -12 -14 -26 -19 -14 -6 -23 -13 -21 -17
3 -5 -8 -8 -24 -8 -35 0 -44 19 -11 23 13 2 32 12 43 23 19 19 39 18 39 -2z
m100 -9 c0 -5 -4 -10 -10 -10 -5 0 -10 5 -10 10 0 6 5 10 10 10 6 0 10 -4 10
-10z m1545 0 c-12 -5 -14 -9 -6 -9 8 -1 12 -3 10 -6 -3 -2 -15 -2 -28 2 -17 4
-19 8 -9 14 7 5 22 8 33 8 l20 0 -20 -9z m-1595 -20 c-24 -24 -50 -26 -50 -4
0 9 6 14 13 11 8 -3 20 -1 28 4 25 15 30 10 9 -11z m180 10 c12 -8 12 -10 -2
-15 -9 -4 -25 -5 -35 -2 -13 3 -12 5 7 7 l25 2 -25 8 c-21 7 -21 8 -5 9 11 0
27 -3 35 -9z m1549 -2 c22 -2 -19 -28 -45 -28 -13 0 -26 5 -29 11 -4 6 -14 8
-24 5 -11 -4 -10 -2 4 10 13 10 30 13 50 9 17 -3 36 -6 44 -7z m-242 -13 c0
-8 -6 -15 -13 -15 -18 0 -27 17 -12 23 21 9 25 8 25 -8z m393 6 c0 -5 -9 -11
-20 -14 -13 -3 -20 0 -20 9 0 8 9 14 20 14 11 0 20 -4 20 -9z m-323 -7 c-3 -3
-12 -4 -19 -1 -8 3 -5 6 6 6 11 1 17 -2 13 -5z m-441 -35 c-59 -14 -58 -22 2
-14 33 4 52 3 52 -3 0 -6 12 -12 27 -14 17 -2 29 -10 31 -20 3 -14 -3 -18 -27
-18 -17 0 -31 5 -31 10 0 6 -17 11 -37 11 -38 1 -38 1 -8 9 25 6 20 8 -30 11
-33 1 -96 1 -140 0 -44 -2 -77 0 -72 5 4 4 45 9 91 11 46 2 95 7 108 12 12 6
34 10 48 9 17 0 12 -3 -14 -9z m-351 -9 c14 -7 8 -8 -20 -3 -22 3 -42 7 -44 9
-9 8 45 2 64 -6z m-145 -10 c0 -5 -7 -10 -15 -10 -8 0 -15 5 -15 10 0 6 7 10
15 10 8 0 15 -4 15 -10z m98 -7 c-10 -2 -26 -2 -35 0 -10 3 -2 5 17 5 19 0 27
-2 18 -5z m109 -9 c-3 -3 -12 -4 -19 -1 -8 3 -5 6 6 6 11 1 17 -2 13 -5z m183
-4 c0 -5 -5 -10 -11 -10 -5 0 -7 5 -4 10 3 6 8 10 11 10 2 0 4 -4 4 -10z
m-343 -6 c-3 -3 -12 -4 -19 -1 -8 3 -5 6 6 6 11 1 17 -2 13 -5z m-57 -14 c0
-5 -4 -10 -10 -10 -5 0 -10 5 -10 10 0 6 5 10 10 10 6 0 10 -4 10 -10z m286
-12 c-8 -6 -7 -11 4 -17 9 -7 -8 -8 -50 -6 -44 3 -59 2 -45 -4 18 -9 17 -10
-8 -10 -16 -1 -26 3 -23 8 4 5 -3 7 -13 4 -16 -4 -19 -1 -15 14 5 17 14 19 84
19 43 -1 73 -4 66 -8z m-221 -30 c-11 -6 -23 -16 -27 -22 -4 -6 -10 -7 -13 -4
-11 11 18 37 40 37 l20 0 -20 -11z m430 -10 c6 -4 2 -8 -7 -8 -10 0 -18 7 -18
17 0 9 3 12 8 7 4 -5 12 -12 17 -16z m1075 -28 c0 -6 -32 -10 -75 -10 -43 0
-75 4 -75 10 0 6 32 10 75 10 43 0 75 -4 75 -10z m-363 -76 c-3 -3 -12 -4 -19
-1 -8 3 -5 6 6 6 11 1 17 -2 13 -5z m-907 -29 c0 -11 -11 -15 -40 -15 -43 0
-55 16 -17 23 44 9 57 7 57 -8z"/>
<path d="M22460 23591 c0 -18 18 -21 30 -6 10 13 9 15 -9 15 -11 0 -21 -4 -21
-9z"/>
<path d="M21388 14333 c6 -2 18 -2 25 0 6 3 1 5 -13 5 -14 0 -19 -2 -12 -5z"/>
<path d="M31468 23863 c17 -2 47 -2 65 0 17 2 3 4 -33 4 -36 0 -50 -2 -32 -4z"/>
<path d="M22100 23791 c0 -5 5 -13 10 -16 6 -3 10 -2 10 4 0 5 -4 13 -10 16
-5 3 -10 2 -10 -4z"/>
<path d="M31974 23781 c4 -5 0 -11 -6 -14 -7 -3 -3 -4 9 -4 17 1 19 4 11 14
-12 15 -22 18 -14 4z"/>
<path d="M22030 23725 c-15 -18 -8 -27 20 -32 15 -2 19 2 17 19 -5 28 -20 33
-37 13z m30 1 c0 -2 -8 -10 -17 -17 -16 -13 -17 -12 -4 4 13 16 21 21 21 13z"/>
<path d="M32025 23720 c10 -11 20 -20 23 -20 3 0 -3 9 -13 20 -10 11 -20 20
-23 20 -3 0 3 -9 13 -20z"/>
<path d="M22825 23710 c-3 -5 -2 -10 4 -10 5 0 13 5 16 10 3 6 2 10 -4 10 -5
0 -13 -4 -16 -10z"/>
<path d="M22678 23623 c7 -3 16 -2 19 1 4 3 -2 6 -13 5 -11 0 -14 -3 -6 -6z"/>
<path d="M22600 23570 c0 -5 5 -10 11 -10 5 0 7 5 4 10 -3 6 -8 10 -11 10 -2
0 -4 -4 -4 -10z"/>
<path d="M22480 23481 c0 -6 4 -13 10 -16 6 -3 7 1 4 9 -7 18 -14 21 -14 7z"/>
<path d="M21820 23451 c0 -5 5 -13 10 -16 6 -3 10 -2 10 4 0 5 -4 13 -10 16
-5 3 -10 2 -10 -4z"/>
<path d="M22351 23327 l-25 -32 32 29 c33 31 37 36 25 35 -5 0 -19 -14 -32
-32z"/>
<path d="M22021 22674 c0 -11 3 -14 6 -6 3 7 2 16 -1 19 -3 4 -6 -2 -5 -13z"/>
<path d="M29923 16945 c0 -8 4 -12 9 -9 5 3 6 10 3 15 -9 13 -12 11 -12 -6z"/>
<path d="M30230 16746 c0 -2 8 -10 18 -17 15 -13 16 -12 3 4 -13 16 -21 21
-21 13z"/>
<path d="M30335 16640 c-3 -6 1 -7 9 -4 18 7 21 14 7 14 -6 0 -13 -4 -16 -10z"/>
<path d="M30360 16596 c0 -2 7 -6 15 -10 8 -3 15 -1 15 4 0 6 -7 10 -15 10 -8
0 -15 -2 -15 -4z"/>
<path d="M30410 16585 c-7 -8 -11 -16 -9 -16 2 -1 17 -3 34 -5 20 -2 25 0 16
5 -8 5 -21 6 -30 3 -14 -5 -14 -3 -2 11 7 9 11 17 8 17 -2 0 -10 -7 -17 -15z"/>
<path d="M30489 16507 c6 -8 7 -18 3 -22 -4 -5 -1 -5 6 -1 10 6 10 11 1 22 -6
8 -14 14 -16 14 -3 0 0 -6 6 -13z"/>
<path d="M30523 16497 c0 -8 7 -14 16 -13 9 1 15 -5 14 -11 -2 -7 2 -13 8 -13
16 0 6 21 -17 37 -17 11 -21 11 -21 0z"/>
<path d="M30462 16463 c2 -9 9 -18 16 -21 18 -6 15 25 -4 32 -11 4 -14 1 -12
-11z"/>
<path d="M30400 16445 c0 -8 5 -15 10 -15 6 0 10 7 10 15 0 8 -4 15 -10 15 -5
0 -10 -7 -10 -15z"/>
<path d="M30582 16453 c1 -4 -4 -19 -11 -33 l-14 -25 27 24 c26 25 37 17 14
-9 -11 -12 -10 -12 5 -1 22 17 22 28 -3 41 -11 6 -19 7 -18 3z"/>
<path d="M30500 16410 c0 -5 7 -10 15 -10 8 0 15 5 15 10 0 6 -7 10 -15 10 -8
0 -15 -4 -15 -10z"/>
<path d="M30624 16408 c-4 -6 -3 -8 4 -4 6 3 14 1 19 -6 4 -7 19 -22 33 -33
15 -12 12 -5 -9 18 -40 42 -37 41 -47 25z"/>
<path d="M30645 16347 c2 -23 29 -35 39 -18 3 5 -4 7 -16 5 -13 -2 -17 -2 -10
2 16 7 15 21 -1 27 -9 3 -13 -2 -12 -16z"/>
<path d="M30729 16298 c-1 -2 -2 -15 -3 -29 -2 -22 2 -25 31 -25 l32 1 -26 27
c-26 27 -31 31 -34 26z m27 -46 c-4 -3 -11 0 -16 8 -15 24 -11 33 6 15 9 -9
13 -19 10 -23z"/>
<path d="M30811 16243 c13 -14 39 -40 57 -56 30 -27 45 -56 22 -42 -7 4 -10
-6 -8 -28 2 -31 5 -34 27 -32 15 2 29 -2 33 -9 6 -8 8 -8 8 1 0 18 -31 45 -46
39 -8 -3 -14 -2 -14 3 0 16 13 20 34 10 11 -6 -13 23 -54 65 -72 73 -109 104
-59 49z m109 -143 c0 -5 -4 -10 -10 -10 -5 0 -10 5 -10 10 0 6 5 10 10 10 6 0
10 -4 10 -10z"/>
<path d="M30805 16186 c1 -18 9 -33 21 -37 30 -12 44 -10 44 4 0 19 -36 50
-49 43 -5 -3 -11 0 -14 6 -3 7 -4 0 -2 -16z m50 -24 c-3 -3 -11 0 -18 7 -9 10
-8 11 6 5 10 -3 15 -9 12 -12z"/>
<path d="M30950 16106 c0 -2 8 -10 18 -17 15 -13 16 -12 3 4 -13 16 -21 21
-21 13z"/>
<path d="M30855 16090 c3 -5 8 -10 11 -10 2 0 4 5 4 10 0 6 -5 10 -11 10 -5 0
-7 -4 -4 -10z"/>
<path d="M30880 16060 c0 -5 5 -10 10 -10 6 0 10 5 10 10 0 6 -4 10 -10 10 -5
0 -10 -4 -10 -10z"/>
<path d="M30965 16036 c0 -24 4 -30 18 -28 9 2 17 -2 17 -9 0 -8 4 -8 15 1 12
10 18 10 33 -1 9 -7 0 5 -21 27 -46 49 -63 52 -62 10z m52 -22 c-4 -4 -14 1
-22 12 -14 19 -14 19 -15 0 0 -11 -3 -17 -6 -13 -3 3 -3 15 1 27 l7 22 21 -21
c11 -11 18 -24 14 -27z"/>
<path d="M31032 15949 c-17 -16 -40 -29 -51 -29 -12 0 -21 -7 -21 -15 0 -11
-11 -15 -40 -15 -29 0 -40 -4 -40 -15 0 -11 -11 -15 -40 -15 -22 0 -40 -4 -40
-10 0 -5 -18 -10 -40 -10 -39 0 -40 -1 -40 -34 l0 -34 -80 -7 c-58 -5 -80 -11
-80 -21 0 -10 -12 -14 -40 -14 -36 0 -40 -2 -40 -25 0 -22 -4 -25 -40 -25 -39
0 -40 -1 -40 -34 l0 -33 -61 -7 c-34 -3 -88 -6 -120 -6 -46 0 -59 -3 -59 -15
0 -11 -11 -15 -40 -15 l-40 0 0 -65 c0 -58 2 -65 20 -65 11 0 20 -4 20 -10 0
-5 12 -10 28 -11 l27 -1 -25 -8 c-14 -4 -37 -8 -51 -9 -20 -1 -25 4 -25 21 1
20 -5 22 -63 26 -71 4 -115 -4 -106 -18 3 -6 -6 -10 -20 -10 -15 0 -24 4 -20
10 3 6 -1 10 -9 10 -9 0 -16 -8 -16 -17 0 -16 -12 -18 -87 -21 -48 -2 -94 -7
-102 -12 -13 -8 -12 -9 7 -10 16 0 22 -6 22 -22 0 -14 -3 -18 -8 -12 -5 8 -28
9 -77 2 -63 -8 -98 -6 -160 7 -11 3 -6 -2 10 -10 l30 -15 -40 6 c-22 3 -55 15
-73 25 -18 10 -44 19 -58 19 -28 0 -43 -26 -24 -43 9 -9 11 -9 6 0 -6 12 46 9
114 -8 27 -6 21 -7 -25 -3 l-60 4 44 -14 c25 -8 49 -12 54 -9 18 11 352 19
402 9 27 -5 27 -5 5 3 -20 7 -15 9 30 10 30 1 66 4 80 6 16 4 13 0 -10 -10
l-35 -14 40 5 c22 3 54 7 70 10 l30 5 -25 -16 c-18 -12 -20 -15 -5 -10 11 4
34 8 50 11 25 4 27 3 10 -5 -15 -7 -3 -9 43 -7 35 1 73 -3 85 -9 12 -6 49 -10
82 -9 41 2 65 -2 76 -12 9 -8 27 -13 40 -13 13 1 44 -2 69 -6 25 -4 59 -7 75
-7 25 1 27 0 10 -8 -16 -7 -17 -9 -3 -9 9 -1 19 3 22 8 3 5 15 7 26 4 11 -3
17 -9 14 -15 -3 -5 5 -6 20 -2 16 4 32 1 41 -6 12 -10 18 -10 30 0 8 6 19 9
25 5 5 -3 10 -1 10 4 0 6 9 11 20 11 11 0 20 -5 20 -10 0 -6 -8 -10 -17 -8
-11 2 -17 -2 -15 -10 1 -8 -2 -11 -7 -8 -5 4 -12 2 -16 -4 -4 -6 12 -10 44
-10 27 0 51 -4 53 -9 4 -10 120 -52 126 -46 3 2 -7 9 -22 14 -36 14 -33 22 5
11 18 -5 36 -7 42 -3 6 3 7 1 4 -4 -8 -12 19 -39 53 -51 18 -7 33 -4 58 9 37
22 73 25 70 7 -4 -17 -37 -42 -45 -34 -4 3 2 13 13 20 17 13 15 13 -18 3 l-37
-12 25 -13 c14 -7 33 -15 42 -17 52 -12 66 -15 55 -9 -21 9 -15 23 8 17 11 -3
25 -16 29 -29 11 -27 42 -23 33 4 -4 13 -2 13 9 -2 9 -12 20 -16 28 -11 9 6
11 4 5 -5 -6 -9 1 -11 26 -6 25 4 29 4 14 -3 -15 -7 -16 -10 -4 -10 8 -1 24
-8 35 -16 13 -10 2 -8 -34 5 -29 11 -60 20 -70 19 -9 -1 0 -6 21 -11 20 -6 37
-15 37 -20 0 -6 7 -8 15 -4 8 3 15 2 15 -2 0 -4 12 -9 26 -10 33 -3 46 -11 38
-24 -4 -5 4 -4 17 3 22 11 23 11 10 -5 -12 -14 -12 -16 4 -10 11 5 16 3 12 -3
-3 -5 4 -9 16 -9 12 1 21 -4 20 -11 -2 -7 3 -10 11 -7 8 3 17 1 21 -5 3 -6 15
-11 26 -11 13 0 18 -4 13 -12 -4 -7 -4 -10 1 -6 9 8 65 -22 65 -35 0 -4 10 -2
23 4 21 12 21 11 7 -6 -14 -17 -14 -18 10 -5 24 13 24 12 10 -5 -8 -10 -10
-16 -3 -12 14 9 45 -2 38 -13 -3 -4 3 -7 13 -6 9 0 16 -4 15 -10 -1 -8 6 -10
19 -6 14 3 19 1 14 -6 -5 -8 -2 -10 9 -6 10 4 15 2 13 -7 -2 -7 3 -14 10 -15
6 -1 17 -2 23 -3 5 0 7 -6 3 -13 -4 -7 -3 -8 4 -4 19 11 -3 42 -38 54 -33 12
-42 27 -10 17 11 -3 20 -2 20 3 0 6 9 8 20 5 11 -3 20 -10 20 -15 0 -5 -10 -6
-22 -3 -15 5 -8 -5 20 -25 42 -32 53 -49 30 -51 -7 0 -3 -5 9 -11 17 -8 26 -8
38 2 19 16 19 40 0 40 -8 0 -15 5 -15 10 0 6 -7 10 -15 10 -20 0 -19 16 1 24
27 10 34 7 35 -16 1 -17 2 -19 6 -5 5 20 33 23 33 3 0 -10 8 -13 25 -10 14 2
25 2 25 0 0 -11 -50 -55 -67 -59 -14 -3 -12 -6 11 -16 25 -10 31 -9 38 4 5 8
13 15 18 15 16 0 41 -33 36 -47 -3 -8 -1 -11 4 -8 6 3 10 1 10 -4 0 -14 -27
-14 -35 -1 -8 13 -55 13 -55 0 0 -5 10 -14 21 -21 16 -8 20 -8 14 1 -6 9 -2 9
14 0 17 -9 26 -9 37 1 8 6 17 9 20 6 9 -8 -35 -29 -46 -22 -23 14 -8 -3 21
-24 18 -13 29 -19 25 -12 -4 6 -2 12 3 12 26 3 30 4 37 12 4 4 2 7 -5 7 -7 0
-9 5 -6 10 3 6 2 10 -3 10 -5 0 -12 9 -15 21 -4 14 -10 18 -18 13 -9 -5 -10
-2 -6 10 5 11 3 15 -5 10 -8 -5 -9 -1 -4 12 4 10 4 16 1 12 -8 -8 -45 23 -45
37 0 5 5 3 10 -5 5 -8 10 -10 9 -5 0 13 -28 63 -29 51 0 -5 -6 -3 -14 4 -8 6
-13 17 -11 23 3 7 -4 23 -15 37 -11 14 -19 21 -18 15 3 -9 -4 -15 -17 -15 -3
0 -1 9 4 19 8 14 7 22 -4 31 -12 10 -17 8 -24 -11 -6 -16 -10 -18 -10 -8 -1 9
-8 16 -17 15 -9 0 -19 6 -21 14 -4 13 -3 13 6 0 5 -8 13 -11 17 -7 4 4 -1 16
-11 27 -15 16 -15 20 -3 15 8 -3 20 -16 25 -27 8 -20 10 -20 16 -4 4 9 3 15
-2 11 -5 -3 -12 4 -16 15 -3 11 -10 20 -15 20 -4 0 -11 7 -14 16 -4 10 -2 13
7 8 11 -7 -3 12 -45 60 -10 11 -18 23 -18 28 0 4 -10 18 -22 30 -12 12 -19 15
-16 6 4 -10 0 -14 -15 -13 -12 1 -22 7 -21 13 2 27 5 31 17 28 6 -1 9 -1 4 1
-4 3 -4 10 -1 15 4 7 2 8 -4 4 -10 -6 -18 8 -9 17 1 1 -4 9 -10 17 -7 8 -25
30 -39 48 -21 26 -29 30 -40 21 -11 -9 -14 -8 -14 4 0 8 6 18 13 20 9 4 9 6
-1 6 -7 1 -11 5 -8 10 3 5 -7 23 -24 40 -16 18 -30 35 -32 39 -2 4 -7 6 -11 4
-5 -1 -6 2 -3 7 4 5 2 12 -3 15 -5 4 -13 1 -17 -5 -7 -12 -24 6 -24 26 0 6 4
4 9 -4 5 -8 11 -9 15 -3 3 6 -2 13 -12 16 -10 4 -19 12 -19 19 0 7 -21 41 -48
75 -35 46 -51 59 -58 50 -6 -9 -7 -6 -4 10 3 12 1 23 -4 23 -5 1 -13 3 -19 4
-5 1 -15 3 -21 4 -8 1 -9 5 0 14 13 17 5 27 -17 20 -15 -4 -15 -3 -2 6 12 8
12 13 2 23 -9 9 -12 9 -12 -2 0 -9 -5 -8 -15 6 -20 26 -19 39 3 23 9 -7 6 -1
-7 14 -27 30 -32 33 -28 15 1 -7 -2 -12 -8 -13 -5 0 -16 -4 -22 -8 -16 -10
-16 -5 -2 26 9 20 7 30 -14 60 -32 47 -55 69 -61 59 -8 -14 11 -35 24 -27 9 5
11 4 6 -3 -9 -15 12 -54 25 -47 5 4 9 -4 9 -17 -1 -21 -2 -21 -11 -5 -6 9 -15
14 -21 11 -7 -4 -8 -2 -4 4 4 7 1 12 -6 12 -8 0 -30 16 -49 37 -18 20 -26 33
-17 30 23 -8 47 20 24 29 -9 3 -13 11 -9 17 4 6 0 8 -10 4 -16 -6 -23 8 -18
36 0 4 -5 6 -11 5 -7 -2 -12 2 -11 9 2 7 -5 17 -15 22 -14 8 -25 3 -50 -20z
m51 8 c7 3 9 3 5 -2 -4 -4 -3 -14 4 -22 9 -12 6 -13 -18 -9 -16 2 -30 5 -32 5
-1 1 3 11 9 23 8 14 14 18 17 10 2 -6 9 -9 15 -5z m32 -77 c0 -8 -9 -16 -20
-18 -11 -3 -24 -10 -28 -18 -13 -23 -37 -17 -33 9 1 12 8 22 14 22 6 0 17 6
24 13 16 16 43 11 43 -8z m45 -16 c0 -8 -19 -13 -24 -6 -3 5 1 9 9 9 8 0 15
-2 15 -3z m-60 -55 c0 -15 -42 -59 -57 -59 -7 0 -13 7 -13 15 0 8 7 15 15 15
8 0 19 9 25 20 12 22 30 27 30 9z m230 -194 c0 -15 -17 -1 -27 22 -20 42 -15
52 7 15 11 -18 20 -35 20 -37z m-120 19 c0 5 6 3 13 -3 8 -6 16 -8 19 -6 3 3
8 -3 11 -14 4 -15 0 -19 -15 -16 -21 4 -47 32 -48 50 0 6 5 3 10 -5 5 -8 10
-11 10 -6z m171 -61 c22 -45 22 -46 11 -39 -14 9 -43 66 -33 66 4 0 14 -12 22
-27z m60 -35 c10 -13 19 -27 19 -33 0 -5 12 -21 26 -34 18 -18 22 -26 13 -32
-7 -4 -20 -4 -30 1 -9 5 -19 6 -23 2 -4 -3 -3 5 2 18 11 29 0 65 -22 73 -9 4
-16 11 -16 17 0 16 10 12 31 -12z m-13 -31 c2 -10 -3 -17 -13 -17 -9 0 -21
-12 -28 -27 -13 -31 -40 -44 -30 -15 3 9 11 24 18 32 7 8 15 23 18 33 8 22 31
18 35 -6z m-1350 -126 c9 -4 46 -5 82 0 38 4 69 4 75 -2 5 -5 -2 -9 -20 -9
-17 0 -40 -3 -52 -6 -34 -9 -5 -32 33 -27 20 3 35 -1 43 -11 12 -14 9 -16 -20
-16 -19 0 -52 3 -74 7 -32 5 -36 8 -20 15 13 5 3 7 -30 4 -27 -2 -42 -2 -33 1
29 8 8 33 -27 33 -19 0 -37 5 -40 10 -8 12 60 13 83 1z m-169 -37 c2 -2 -47
-3 -110 -3 -76 1 -101 4 -74 9 38 6 175 1 184 -6z m1641 -9 c7 -8 10 -15 7
-15 -3 0 -12 -3 -20 -6 -9 -3 -16 3 -20 15 -6 25 14 28 33 6z m-1960 -5 c-8
-5 -35 -9 -60 -8 l-45 1 40 7 c22 4 49 8 60 8 16 1 17 0 5 -8z m2017 -46 c-23
-13 -50 -8 -41 7 3 5 14 9 24 9 14 0 18 5 13 18 -5 14 -3 13 10 -3 14 -18 14
-21 -6 -31z m-1047 -3 c0 -5 10 -7 23 -4 18 4 19 3 7 -6 -19 -14 -50 -14 -50
-1 0 7 -6 7 -19 0 -11 -5 -26 -10 -33 -9 -15 1 41 28 60 29 6 0 12 -4 12 -9z
m160 -1 c0 -5 -4 -10 -9 -10 -6 0 -13 5 -16 10 -3 6 1 10 9 10 9 0 16 -4 16
-10z m201 -5 c0 -5 -9 -11 -21 -13 -20 -3 -27 8 -13 22 10 9 34 3 34 -9z m697
-9 c-7 -8 -15 -12 -17 -11 -5 6 10 25 20 25 5 0 4 -6 -3 -14z m-952 -6 c8 0
14 -4 14 -9 0 -11 -30 -12 -70 -4 -23 5 -24 6 -5 13 11 5 26 7 33 4 8 -2 20
-4 28 -4z m912 -22 c1 -10 3 -27 4 -38 3 -25 7 -25 24 -2 8 10 13 12 14 5 0
-7 12 -13 28 -13 21 0 30 -7 40 -30 8 -16 18 -30 24 -30 7 0 5 7 -4 18 -19 23
-40 72 -30 72 8 0 41 -67 42 -85 0 -5 -9 -11 -19 -11 -11 -1 -19 4 -18 9 1 6
-7 12 -18 13 -11 1 -32 4 -47 5 -16 2 -28 7 -28 11 0 4 -6 7 -12 6 -7 -2 -12
5 -10 14 1 9 -3 20 -9 24 -8 5 -10 3 -4 -7 4 -8 -1 -6 -11 5 -14 13 -15 20 -6
23 6 3 12 10 12 17 0 20 25 15 28 -6z m-700 0 c-2 -6 -11 -12 -19 -14 -7 -1
-23 -5 -34 -8 -15 -5 -15 -4 3 5 12 7 22 16 22 21 0 4 7 8 16 8 9 0 14 -5 12
-12z m172 2 c0 -5 -15 -10 -33 -10 -18 0 -39 -6 -46 -12 -11 -11 -11 -9 -2 10
9 16 21 22 46 22 19 0 35 -4 35 -10z m-98 -35 c13 -18 9 -22 -19 -18 -24 3
-25 2 -8 -6 16 -8 17 -10 3 -10 -18 -1 -48 24 -48 40 0 13 63 8 72 -6z m-72
-15 c0 -5 -2 -10 -4 -10 -3 0 -8 5 -11 10 -3 6 -1 10 4 10 6 0 11 -4 11 -10z
m-40 -10 c0 -5 -7 -7 -15 -4 -8 4 -15 8 -15 10 0 2 7 4 15 4 8 0 15 -4 15 -10z
m207 -16 c2 -6 -3 -14 -12 -17 -19 -8 -68 10 -61 21 8 13 69 9 73 -4z m238
-54 c-3 -4 -15 -6 -27 -2 -21 5 -21 6 -2 12 21 8 37 3 29 -10z m-102 3 c-7 -2
-19 -2 -25 0 -7 3 -2 5 12 5 14 0 19 -2 13 -5z m37 -22 c0 -10 -26 -9 -36 2
-4 4 2 7 14 7 12 0 22 -4 22 -9z m140 -2 c0 -6 -6 -9 -12 -6 -7 2 -25 -3 -40
-11 -22 -13 -30 -14 -40 -4 -9 9 -6 12 14 12 15 0 30 5 33 10 8 13 45 13 45
-1z m363 -28 c2 -9 1 -25 -3 -36 -7 -18 -9 -18 -19 8 -6 15 -15 27 -21 27 -5
0 -10 6 -10 14 0 19 47 8 53 -13z m-358 -11 c3 -5 -1 -10 -10 -10 -9 0 -13 5
-10 10 3 6 8 10 10 10 2 0 7 -4 10 -10z m412 -9 c-10 -12 -9 -14 7 -8 14 6 17
4 12 -9 -4 -10 1 -25 10 -35 20 -22 9 -24 -29 -6 -27 12 -36 40 -17 52 6 4 8
10 6 14 -3 4 1 8 9 8 12 0 12 -3 2 -16z m-79 -68 c-4 -22 -22 -20 -26 1 -2 10
3 16 13 16 10 0 15 -7 13 -17z m-190 -30 c4 3 14 1 22 -4 13 -8 13 -10 0 -18
-8 -6 -17 -7 -20 -3 -3 4 -17 13 -32 19 -16 7 -28 17 -28 23 0 6 11 3 25 -6
13 -8 28 -13 33 -11z m142 11 c0 -8 -19 -13 -24 -6 -3 5 1 9 9 9 8 0 15 -2 15
-3z m-35 -24 c-3 -5 -10 -10 -16 -10 -5 0 -9 5 -9 10 0 6 7 10 16 10 8 0 12
-4 9 -10z m-40 -20 c3 -5 -3 -10 -15 -10 -12 0 -18 5 -15 10 3 6 10 10 15 10
5 0 12 -4 15 -10z m82 -6 c-3 -3 -12 -4 -19 -1 -8 3 -5 6 6 6 11 1 17 -2 13
-5z m-37 -19 c0 -8 7 -15 16 -15 8 0 13 -4 10 -9 -4 -5 -19 -3 -36 6 -17 8
-28 19 -25 24 10 15 35 10 35 -6z m345 -64 c3 -5 1 -12 -5 -16 -5 -3 -10 1
-10 9 0 18 6 21 15 7z m112 -225 c-8 -8 -17 -12 -21 -9 -3 3 2 12 12 19 22 16
29 9 9 -10z"/>
<path d="M31056 15942 c-3 -5 1 -9 9 -9 8 0 12 4 9 9 -3 4 -7 8 -9 8 -2 0 -6
-4 -9 -8z"/>
<path d="M31460 15461 c0 -5 7 -11 14 -14 10 -4 13 -1 9 9 -6 15 -23 19 -23 5z"/>
<path d="M29277 15444 c-13 -13 5 -24 40 -24 30 0 34 2 23 15 -13 15 -51 20
-63 9z"/>
<path d="M29492 15422 c-10 -7 -8 -11 10 -15 37 -10 103 -8 93 2 -14 14 -88
23 -103 13z"/>
<path d="M29381 15406 l-25 -14 33 -7 c31 -7 61 6 61 26 0 13 -42 10 -69 -5z"/>
<path d="M29298 15303 c12 -2 30 -2 40 0 9 3 -1 5 -23 4 -22 0 -30 -2 -17 -4z"/>
<path d="M28703 15283 c-36 -7 -27 -23 13 -23 23 0 34 4 32 12 -5 14 -15 17
-45 11z"/>
<path d="M28930 15265 c19 -7 29 -14 21 -14 -8 -1 -12 -4 -8 -7 3 -3 14 -1 24
5 11 6 13 11 5 11 -7 0 -11 4 -8 8 2 4 -12 9 -32 9 l-37 2 35 -14z"/>
<path d="M28987 15268 c6 -10 80 -10 86 0 3 4 -16 7 -43 7 -26 0 -46 -3 -43
-7z"/>
<path d="M28828 15263 c7 -3 16 -2 19 1 4 3 -2 6 -13 5 -11 0 -14 -3 -6 -6z"/>
<path d="M28640 15240 c0 -18 -4 -20 -35 -14 -19 3 -43 3 -52 -1 -14 -6 -7
-11 27 -19 l45 -12 -62 -13 c-35 -6 -63 -13 -63 -14 0 -1 33 -2 73 -3 44 0 62
3 47 7 -20 6 -17 7 20 9 25 2 35 5 23 7 -23 4 -33 23 -12 23 5 0 8 3 5 8 -2 4
14 6 37 4 l42 -4 -40 21 c-49 26 -55 26 -55 1z"/>
<path d="M28767 15253 c-10 -10 42 -33 74 -33 22 0 27 3 22 17 -5 13 -3 15 13
9 13 -5 16 -4 9 3 -6 6 -24 7 -47 2 -22 -5 -36 -5 -32 0 6 10 -29 12 -39 2z"/>
<path d="M28908 15253 c7 -3 16 -2 19 1 4 3 -2 6 -13 5 -11 0 -14 -3 -6 -6z"/>
<path d="M28490 15190 c-12 -8 -12 -10 5 -10 11 0 27 5 35 10 12 8 12 10 -5
10 -11 0 -27 -5 -35 -10z"/>
<path d="M28718 15193 c7 -3 16 -2 19 1 4 3 -2 6 -13 5 -11 0 -14 -3 -6 -6z"/>
<path d="M28505 15150 l-30 -8 30 0 c17 0 41 4 55 8 l25 8 -25 0 c-14 0 -38
-4 -55 -8z"/>
<path d="M28391 15121 c-7 -5 -30 -7 -50 -5 -20 2 -47 0 -60 -3 l-25 -6 25 -9
c36 -14 77 -20 61 -10 -10 6 -1 11 27 16 23 3 41 11 41 16 0 12 -1 12 -19 1z
m-71 -21 c0 -5 -7 -7 -15 -4 -8 4 -15 8 -15 10 0 2 7 4 15 4 8 0 15 -4 15 -10z"/>
<path d="M28186 15094 c-4 -10 -1 -14 6 -12 15 5 23 28 10 28 -5 0 -13 -7 -16
-16z"/>
<path d="M28243 15086 c0 -6 13 -11 29 -12 35 -1 35 1 0 14 -21 7 -29 7 -29
-2z"/>
<path d="M28210 15059 c0 -5 5 -7 10 -4 6 3 10 8 10 11 0 2 -4 4 -10 4 -5 0
-10 -5 -10 -11z"/>
<path d="M18390 15056 c0 -2 8 -10 18 -17 15 -13 16 -12 3 4 -13 16 -21 21
-21 13z"/>
<path d="M28126 15025 c-25 -19 -16 -19 20 0 16 8 22 15 14 15 -8 -1 -24 -7
-34 -15z"/>
<path d="M28061 15010 c-9 -5 -4 -7 13 -7 29 0 32 2 13 10 -8 3 -20 2 -26 -3z"/>
<path d="M28003 14994 c0 -16 6 -17 25 -5 11 6 9 9 -5 13 -12 3 -20 0 -20 -8z"/>
<path d="M18477 14985 c3 -8 9 -12 14 -9 12 7 11 11 -5 17 -10 4 -13 1 -9 -8z"/>
<path d="M18517 14959 c7 -7 15 -10 18 -7 3 3 -2 9 -12 12 -14 6 -15 5 -6 -5z"/>
<path d="M27800 14946 c14 -8 19 -15 12 -16 -10 0 -8 -5 4 -17 13 -13 19 -14
22 -5 2 7 9 9 15 5 8 -5 8 -2 0 9 -7 8 -10 17 -7 20 3 3 0 9 -7 14 -8 5 -10 3
-4 -6 6 -10 4 -12 -8 -7 -40 16 -50 17 -27 3z"/>
<path d="M27867 14954 c7 -3 9 -12 6 -20 -3 -8 -1 -14 5 -14 17 0 22 28 6 34
-19 7 -34 7 -17 0z"/>
<path d="M27920 14946 c7 -7 13 -7 20 0 6 6 3 10 -10 10 -13 0 -16 -4 -10 -10z"/>
<path d="M18550 14930 c0 -4 12 -13 28 -21 15 -8 32 -20 38 -28 6 -8 18 -11
27 -8 19 7 33 -9 15 -17 -7 -3 -3 -3 10 0 12 3 22 1 22 -5 0 -6 -6 -11 -12
-12 -7 0 3 -7 22 -14 19 -7 28 -14 20 -15 -8 0 2 -10 22 -20 20 -11 48 -30 62
-43 63 -57 84 -68 105 -55 11 7 24 9 28 5 4 -5 1 -12 -7 -18 -11 -7 -9 -8 10
-7 18 2 25 -2 24 -13 -1 -15 2 -16 34 -2 44 18 83 3 80 -32 -2 -20 -5 -21 -30
-13 -31 11 -34 18 -16 36 10 10 6 10 -20 1 l-32 -11 27 -21 c16 -12 30 -24 33
-27 12 -15 44 -19 57 -8 22 18 44 19 67 2 23 -16 14 -19 -14 -4 -11 6 -21 6
-24 1 -4 -5 8 -13 26 -16 18 -4 40 -12 50 -18 13 -9 21 -7 35 5 13 12 23 14
35 7 11 -6 19 -6 23 1 3 5 -2 10 -12 10 -10 0 -39 11 -65 24 -32 16 -49 20
-52 12 -3 -8 -7 -7 -14 3 -6 8 -15 10 -22 6 -9 -5 -11 -4 -6 3 5 8 -1 12 -14
12 -12 0 -18 4 -15 10 6 10 -158 91 -178 87 -7 -1 -11 3 -10 9 1 6 -4 11 -11
11 -8 0 -12 -8 -9 -21 4 -19 3 -20 -7 -3 -8 13 -18 16 -33 11 -20 -6 -21 -5
-7 11 14 16 13 17 -7 11 -12 -4 -24 -2 -28 3 -3 6 0 8 8 5 8 -3 14 1 14 10 0
8 -7 18 -14 20 -9 4 -12 1 -8 -7 4 -6 -2 -2 -13 10 -13 15 -23 18 -33 12 -8
-5 -18 -9 -24 -9 -5 1 -2 5 8 11 25 15 11 30 -21 23 -17 -3 -22 -2 -15 3 15
11 -44 49 -67 44 -8 -1 -11 1 -7 5 5 5 -7 14 -25 20 -18 6 -32 16 -31 21 1 5
-5 10 -13 10 -7 0 -14 -3 -14 -7z m461 -258 c-7 -2 -18 1 -23 6 -8 8 -4 9 13
5 13 -4 18 -8 10 -11z m184 -82 c3 -6 -1 -7 -9 -4 -18 7 -21 14 -7 14 6 0 13
-4 16 -10z m22 -26 c-3 -3 -12 -4 -19 -1 -8 3 -5 6 6 6 11 1 17 -2 13 -5z"/>
<path d="M27720 14930 c0 -17 19 -20 45 -6 l27 14 -36 0 c-20 0 -36 -4 -36 -8z"/>
<path d="M27760 14901 c0 -17 19 -22 37 -11 15 9 14 10 -6 4 -16 -4 -21 -3
-17 5 4 6 2 11 -3 11 -6 0 -11 -4 -11 -9z"/>
<path d="M27725 14870 c3 -5 8 -10 11 -10 2 0 4 5 4 10 0 6 -5 10 -11 10 -5 0
-7 -4 -4 -10z"/>
<path d="M27579 14850 c-11 -7 -10 -10 5 -16 10 -4 21 -2 25 5 5 8 18 10 37 5
16 -4 26 -4 22 1 -10 11 -73 14 -89 5z"/>
<path d="M27531 14802 c-1 -7 -6 -10 -13 -6 -6 4 -8 3 -4 -4 3 -6 -2 -13 -11
-15 -13 -3 -14 -5 -3 -6 23 -1 43 15 37 30 -4 11 -6 11 -6 1z"/>
<path d="M27352 14786 c7 -8 17 -12 22 -9 4 3 2 9 -5 14 -22 13 -31 11 -17 -5z"/>
<path d="M27470 14789 c0 -5 5 -7 10 -4 6 3 10 8 10 11 0 2 -4 4 -10 4 -5 0
-10 -5 -10 -11z"/>
<path d="M27272 14772 c-9 -6 -5 -12 13 -22 18 -10 28 -11 36 -3 24 24 -18 44
-49 25z"/>
<path d="M27391 14766 c-9 -11 -6 -12 14 -8 14 2 25 8 25 13 0 14 -26 11 -39
-5z"/>
<path d="M27200 14755 c0 -9 5 -15 11 -13 6 2 11 8 11 13 0 5 -5 11 -11 13 -6
2 -11 -4 -11 -13z"/>
<path d="M27433 14750 c-37 -22 -45 -38 -10 -18 12 7 25 11 29 10 3 -1 9 5 12
13 7 19 7 19 -31 -5z"/>
<path d="M27367 14726 c-4 -10 -1 -13 8 -9 8 3 12 9 9 14 -7 12 -11 11 -17 -5z"/>
<path d="M27250 14719 c0 -7 -10 -9 -27 -5 -21 5 -24 4 -13 -4 10 -6 11 -10 3
-10 -7 0 -13 -5 -13 -11 0 -7 7 -8 18 -4 21 10 97 16 88 8 -3 -4 -19 -7 -34
-8 -36 -3 -62 -15 -62 -28 0 -7 4 -7 12 1 14 14 42 16 33 2 -10 -16 5 -12 32
10 14 11 30 17 37 13 6 -4 5 1 -3 10 -7 10 -19 17 -25 16 -24 -3 -37 2 -31 11
3 6 1 10 -4 10 -6 0 -11 -5 -11 -11z"/>
<path d="M27330 14706 c0 -2 7 -7 16 -10 8 -3 12 -2 9 4 -6 10 -25 14 -25 6z"/>
<path d="M32007 14684 c-10 -11 -8 -26 2 -20 5 4 11 0 14 -6 2 -7 8 -10 13 -5
4 4 1 14 -7 22 -8 9 -18 12 -22 9z"/>
<path d="M31900 14676 c0 -2 14 -9 31 -15 27 -9 30 -9 19 4 -11 13 -50 22 -50
11z"/>
<path d="M27049 14632 c9 -3 9 -7 0 -18 -8 -9 -8 -14 -1 -14 6 0 14 5 17 10 3
6 18 9 33 9 17 -1 21 -3 10 -6 -24 -6 -23 -19 1 -19 11 0 19 5 18 10 -1 6 14
11 33 12 53 2 55 3 42 16 -8 8 -15 8 -26 -1 -9 -7 -21 -9 -28 -5 -7 5 -35 9
-62 9 -26 0 -43 -1 -37 -3z"/>
<path d="M26919 14584 c-10 -13 -10 -17 2 -25 8 -5 19 -7 26 -4 6 2 17 -3 24
-11 10 -12 9 -13 -5 -8 -10 4 -16 1 -16 -7 0 -7 3 -9 7 -6 3 4 13 1 21 -6 13
-10 14 -9 7 2 -6 11 -4 13 8 8 26 -10 20 8 -8 23 -14 7 -25 22 -25 32 0 22
-23 24 -41 2z"/>
<path d="M27050 14580 c0 -5 5 -10 10 -10 6 0 10 5 10 10 0 6 -4 10 -10 10 -5
0 -10 -4 -10 -10z"/>
<path d="M27012 14565 c-7 -8 -9 -15 -5 -16 4 0 15 -2 24 -4 11 -2 16 3 15 13
-4 21 -18 24 -34 7z"/>
<path d="M32090 14570 c0 -15 42 -50 52 -44 13 8 -15 47 -35 50 -9 1 -17 -2
-17 -6z"/>
<path d="M26883 14540 c-2 -23 10 -26 26 -6 9 11 8 15 -5 20 -8 3 -17 6 -18 6
-1 0 -2 -9 -3 -20z"/>
<path d="M26900 14510 c-8 -5 -11 -13 -6 -17 5 -4 11 -2 13 5 3 6 9 12 15 12
6 0 8 -6 5 -14 -4 -11 -1 -11 18 -2 13 6 23 11 22 12 -13 8 -56 11 -67 4z"/>
<path d="M32150 14516 c0 -2 7 -7 16 -10 8 -3 12 -2 9 4 -6 10 -25 14 -25 6z"/>
<path d="M26773 14472 c-35 -5 -27 -22 10 -22 l32 -1 -27 -17 c-16 -9 -28 -20
-28 -24 0 -12 10 -9 27 7 8 8 19 13 23 10 5 -3 7 4 5 15 -4 23 -1 24 27 9 16
-9 19 -8 13 2 -6 8 -4 11 7 7 8 -4 15 -1 15 5 0 12 -57 16 -104 9z"/>
<path d="M26598 14453 c-44 -7 -33 -21 15 -19 36 0 41 3 31 13 -7 7 -14 12
-16 12 -2 -1 -15 -4 -30 -6z"/>
<path d="M26700 14430 c-13 -8 -12 -10 3 -10 9 0 17 5 17 10 0 12 -1 12 -20 0z"/>
<path d="M26722 14415 c-8 -17 -8 -25 -1 -25 6 0 7 -4 4 -10 -3 -5 0 -8 7 -5
14 6 22 65 9 65 -4 0 -13 -11 -19 -25z"/>
<path d="M26628 14389 c-7 -5 -23 -9 -35 -9 -23 0 -40 -17 -29 -28 10 -10 116
-9 109 1 -3 4 -10 6 -17 4 -7 -3 -13 5 -14 16 0 12 2 17 6 11 9 -15 49 -27 55
-17 8 12 -60 31 -75 22z"/>
<path d="M19425 14380 c3 -5 8 -10 11 -10 2 0 4 5 4 10 0 6 -5 10 -11 10 -5 0
-7 -4 -4 -10z"/>
<path d="M19480 14350 c0 -5 5 -10 11 -10 5 0 7 5 4 10 -3 6 -8 10 -11 10 -2
0 -4 -4 -4 -10z"/>
<path d="M26438 14313 c7 -3 16 -2 19 1 4 3 -2 6 -13 5 -11 0 -14 -3 -6 -6z"/>
<path d="M26483 14301 c1 -12 7 -17 17 -14 11 3 11 1 -3 -10 -16 -14 -16 -15
-1 -21 9 -4 19 -4 22 -1 3 3 -1 5 -9 5 -10 1 -8 5 5 15 11 8 15 15 9 15 -7 0
-18 7 -27 15 -13 14 -15 13 -13 -4z"/>
<path d="M26540 14295 c7 -8 18 -15 24 -14 7 0 6 2 -2 6 -6 2 -10 9 -6 14 3 5
-2 9 -12 9 -13 0 -14 -3 -4 -15z"/>
<path d="M26399 14286 c6 -7 8 -21 5 -31 -5 -13 -3 -16 7 -11 8 3 22 9 31 12
16 6 15 8 -6 25 -29 23 -55 26 -37 5z"/>
<path d="M26365 14239 c4 -6 -3 -7 -20 -3 -25 6 -26 5 -23 -35 1 -23 5 -44 8
-46 4 -2 21 6 40 18 18 12 42 27 52 33 16 10 17 12 4 17 -9 4 -23 3 -33 0 -10
-4 -14 -2 -10 4 4 6 0 14 -9 17 -9 3 -12 2 -9 -5z m35 -34 c-5 -5 -23 -19 -42
-29 -28 -17 -31 -17 -19 -3 9 11 10 17 2 17 -6 0 -11 5 -11 11 0 8 4 8 15 -1
8 -6 19 -9 26 -5 8 6 8 10 -1 15 -8 5 -3 7 13 7 16 -1 22 -6 17 -12z"/>
<path d="M26240 14210 c0 -22 -6 -33 -22 -39 -24 -9 -17 -15 26 -25 27 -7 28
-6 21 21 -5 15 -8 38 -8 51 1 12 -3 22 -8 22 -5 0 -9 -14 -9 -30z"/>
<path d="M26430 14236 c0 -2 7 -6 15 -10 8 -3 15 -1 15 4 0 6 -7 10 -15 10 -8
0 -15 -2 -15 -4z"/>
<path d="M19898 14193 c7 -3 16 -2 19 1 4 3 -2 6 -13 5 -11 0 -14 -3 -6 -6z"/>
<path d="M26080 14150 c0 -5 5 -10 10 -10 6 0 10 5 10 10 0 6 -4 10 -10 10 -5
0 -10 -4 -10 -10z"/>
<path d="M26280 14145 c-7 -9 -19 -14 -27 -11 -8 3 -11 2 -8 -4 3 -5 -5 -14
-17 -21 -13 -7 -26 -16 -29 -22 -4 -5 -12 0 -18 12 -13 24 -33 27 -50 7 -9
-11 -6 -12 14 -8 31 5 33 -13 3 -22 -17 -4 -20 -8 -11 -17 14 -14 41 -6 77 26
16 13 33 22 39 18 6 -3 7 -1 3 5 -4 7 3 14 19 18 14 3 22 11 18 17 -4 6 0 8
11 4 10 -4 15 -3 11 3 -9 14 -21 12 -35 -5z"/>
<path d="M26190 14130 c0 -5 7 -10 15 -10 8 0 15 5 15 10 0 6 -7 10 -15 10 -8
0 -15 -4 -15 -10z"/>
<path d="M20088 14123 c7 -3 16 -2 19 1 4 3 -2 6 -13 5 -11 0 -14 -3 -6 -6z"/>
<path d="M20215 14090 c-3 -5 1 -10 9 -10 9 0 16 5 16 10 0 6 -4 10 -9 10 -6
0 -13 -4 -16 -10z"/>
<path d="M26084 14031 c0 -16 4 -27 9 -24 4 2 5 9 1 14 -3 6 0 10 7 8 35 -4
44 1 25 16 -30 23 -44 18 -42 -14z m31 9 c3 -6 -1 -7 -9 -4 -18 7 -21 14 -7
14 6 0 13 -4 16 -10z"/>
<path d="M20465 14040 c3 -5 8 -10 11 -10 2 0 4 5 4 10 0 6 -5 10 -11 10 -5 0
-7 -4 -4 -10z"/>
<path d="M25835 14000 c-18 -7 -18 -8 8 -15 30 -8 43 -2 32 14 -7 13 -12 13
-40 1z"/>
<path d="M26000 13997 c0 -9 -5 -17 -11 -17 -5 0 -8 4 -5 9 9 14 -50 7 -68 -8
-15 -13 -16 -15 -2 -23 21 -12 20 -29 -1 -21 -13 5 -15 2 -10 -11 6 -14 3 -17
-8 -12 -9 3 -13 2 -10 -4 3 -6 3 -10 -2 -10 -14 0 -29 14 -36 33 -9 23 -44 22
-57 -3 -6 -11 -17 -20 -25 -20 -8 0 -15 -7 -15 -15 0 -8 9 -15 20 -15 11 0 20
6 20 14 0 16 41 29 53 17 4 -4 -2 -16 -13 -26 -11 -10 -20 -14 -20 -10 0 4
-12 -5 -27 -21 -17 -18 -28 -24 -31 -16 -2 7 -8 9 -14 6 -6 -4 -5 -10 3 -15
11 -7 11 -9 -1 -9 -13 0 -13 -2 -1 -9 17 -11 43 -3 35 10 -3 5 5 13 18 18 13
5 29 18 37 29 8 12 19 19 23 16 5 -3 3 -13 -4 -21 -12 -15 -11 -15 9 -3 12 8
20 17 18 21 -5 7 46 34 58 30 5 -1 6 3 3 8 -4 5 7 19 23 30 33 24 46 27 35 9
-6 -10 -4 -10 8 0 16 13 18 35 5 48 -4 4 -7 0 -7 -9z m-35 -17 c16 -7 17 -9 3
-9 -9 -1 -18 -7 -21 -13 -2 -8 -8 -9 -13 -4 -5 5 -3 11 5 14 11 4 11 6 0 13
-18 11 0 10 26 -1z"/>
<path d="M25750 13970 c0 -5 9 -10 20 -10 11 0 20 5 20 10 0 6 -9 10 -20 10
-11 0 -20 -4 -20 -10z"/>
<path d="M25955 13930 c-3 -6 1 -7 9 -4 18 7 21 14 7 14 -6 0 -13 -4 -16 -10z"/>
<path d="M25630 13840 c-11 -7 -8 -11 15 -21 17 -7 36 -11 42 -10 8 1 10 -4 7
-14 -3 -8 -11 -15 -18 -15 -6 0 -5 -4 3 -9 21 -13 44 -2 31 14 -8 9 -7 14 2
18 7 2 0 8 -17 12 -16 5 -34 14 -40 21 -7 9 -15 11 -25 4z"/>
<path d="M25690 13836 c0 -2 7 -7 16 -10 8 -3 12 -2 9 4 -6 10 -25 14 -25 6z"/>
<path d="M25600 13810 c0 -5 5 -10 11 -10 5 0 7 5 4 10 -3 6 -8 10 -11 10 -2
0 -4 -4 -4 -10z"/>
<path d="M25597 13769 c-4 -16 -3 -18 9 -8 16 13 19 29 5 29 -5 0 -11 -9 -14
-21z"/>
<path d="M25520 13750 c0 -12 8 -12 35 0 18 8 17 9 -7 9 -16 1 -28 -3 -28 -9z"/>
<path d="M25611 13736 c-9 -11 -9 -16 0 -22 8 -4 9 -3 5 4 -4 7 -2 13 3 13 26
3 30 4 37 12 4 4 -2 7 -13 7 -11 0 -26 -6 -32 -14z"/>
<path d="M25544 13725 c-25 -19 -14 -19 22 0 16 8 22 15 13 15 -8 0 -24 -7
-35 -15z"/>
<path d="M25565 13700 c-8 -13 5 -13 25 0 13 8 13 10 -2 10 -9 0 -20 -4 -23
-10z"/>
<path d="M25410 13675 c0 -9 11 -13 30 -13 17 1 36 -4 42 -10 15 -15 3 -15
-25 0 -20 10 -21 10 -8 -6 17 -21 43 -17 47 7 1 9 -1 17 -4 17 -4 0 -24 4 -44
9 -29 7 -38 6 -38 -4z"/>
<path d="M25519 13688 c0 -2 -2 -12 -4 -23 -3 -19 -3 -19 9 -3 7 10 17 14 21
10 5 -4 5 -1 1 6 -6 10 -24 17 -27 10z"/>
<path d="M25290 13640 c-9 -6 -10 -10 -3 -10 6 0 15 5 18 10 8 12 4 12 -15 0z"/>
<path d="M25346 13635 c4 -11 0 -15 -16 -15 -16 0 -20 -4 -16 -16 5 -12 1 -14
-17 -9 -15 4 -18 3 -8 -3 11 -8 11 -10 0 -15 -12 -5 -12 -6 0 -6 11 -1 11 -4
0 -18 -12 -14 -12 -16 1 -11 8 3 14 13 14 22 -1 9 4 16 12 16 8 0 23 9 35 21
16 16 28 20 51 15 l31 -6 -26 20 c-30 24 -69 27 -61 5z"/>
<path d="M25400 13589 c0 -5 5 -7 10 -4 6 3 10 8 10 11 0 2 -4 4 -10 4 -5 0
-10 -5 -10 -11z"/>
<path d="M25350 13579 c0 -5 5 -9 10 -9 6 0 12 0 15 0 14 0 8 13 -7 16 -10 1
-18 -2 -18 -7z"/>
<path d="M25323 13563 c4 -3 1 -13 -6 -21 -10 -13 -9 -14 11 -3 22 12 22 31 0
31 -6 0 -8 -3 -5 -7z"/>
<path d="M24957 13524 c-17 -17 -4 -25 36 -22 23 2 42 8 42 13 0 12 -67 19
-78 9z"/>
<path d="M25163 13504 c-10 -22 -10 -25 3 -20 9 3 20 6 25 6 6 0 7 4 4 10 -3
6 1 7 9 4 20 -8 11 -22 -22 -36 -16 -6 -22 -12 -14 -15 6 -3 26 7 43 21 17 14
36 23 41 20 7 -5 8 -2 3 6 -6 10 -4 12 8 7 8 -3 21 1 27 9 8 9 9 14 2 14 -6 0
-13 -6 -15 -12 -4 -10 -6 -10 -6 0 -1 9 -7 9 -25 -3 -13 -9 -26 -12 -28 -7 -1
5 -12 12 -23 15 -15 5 -23 0 -32 -19z"/>
<path d="M25113 13506 c-27 -13 -30 -34 -5 -43 9 -4 24 -13 32 -22 13 -12 11
-14 -12 -9 -15 3 -25 1 -22 -3 3 -5 1 -9 -5 -9 -5 0 -12 4 -16 9 -3 5 -18 10
-33 11 -15 0 -40 2 -57 3 -16 1 -30 -2 -30 -8 0 -5 11 -10 23 -10 13 -1 28 -8
33 -18 6 -9 20 -22 32 -28 21 -12 22 -11 4 8 -16 18 -16 21 -2 33 9 7 18 10
22 7 3 -4 -2 -10 -11 -13 -14 -5 -15 -9 -5 -15 7 -4 24 -2 39 6 14 7 33 16 42
19 17 5 17 7 0 36 -16 30 -16 32 2 45 24 18 3 18 -31 1z"/>
<path d="M24942 13364 c-9 -9 -22 -12 -35 -8 -22 6 -21 5 1 -11 23 -17 58 -13
47 5 -4 6 1 7 10 3 15 -5 14 -8 -4 -26 -16 -17 -23 -18 -35 -8 -18 15 -70 6
-61 -10 5 -7 11 -7 19 0 8 7 12 5 12 -8 0 -20 -37 -26 -48 -8 -5 9 -10 9 -20
-1 -6 -6 -20 -12 -30 -12 -21 0 -21 -1 -6 -35 13 -29 23 -32 32 -9 4 9 13 14
21 10 19 -7 19 -2 1 13 -11 9 -18 8 -30 -4 -9 -9 -16 -12 -16 -6 0 18 32 30
51 18 23 -14 70 9 62 29 -4 10 0 12 11 8 8 -3 29 4 45 15 16 12 34 21 40 21
14 0 14 13 -1 28 -16 16 -50 14 -66 -4z"/>
<path d="M24796 13362 c-11 -18 9 -29 34 -20 20 7 22 11 10 18 -18 12 -37 13
-44 2z"/>
<path d="M24705 13213 c-11 -3 -26 -10 -33 -16 -10 -8 -16 -7 -24 4 -8 11 -9
11 -4 -3 3 -12 0 -18 -9 -18 -8 0 -15 -4 -15 -9 0 -5 -10 -12 -22 -16 -14 -4
-18 -8 -10 -12 6 -2 12 -10 12 -16 0 -8 -4 -7 -12 1 -7 7 -20 12 -30 12 -10 0
-18 5 -18 10 0 6 9 10 20 10 11 0 20 4 20 9 0 5 10 12 23 15 21 7 21 7 2 15
-22 9 -59 -5 -50 -19 7 -11 -43 -26 -53 -16 -3 4 0 11 7 15 7 5 12 14 10 20
-3 8 -11 6 -27 -5 l-23 -15 35 -35 c20 -20 40 -33 45 -29 15 8 62 -5 55 -17
-3 -5 -11 -4 -19 2 -8 7 -19 9 -24 6 -15 -10 -62 5 -55 16 4 6 -2 8 -11 6 -10
-1 -20 -10 -23 -18 -3 -8 -1 -12 3 -8 4 4 18 -4 32 -18 32 -33 54 -30 98 11
21 19 43 31 49 28 6 -4 5 1 -3 10 -17 21 -4 39 40 57 24 10 32 10 42 0 9 -10
9 -11 0 -6 -13 7 -83 -23 -83 -37 0 -5 7 -6 16 -3 8 3 12 2 9 -4 -3 -6 1 -7
10 -4 9 4 14 13 10 21 -3 10 -1 13 8 10 7 -2 28 3 47 13 l35 18 -28 11 c-16 6
-29 10 -30 10 -1 -1 -11 -4 -22 -6z m-130 -133 c-3 -5 -13 -10 -21 -10 -8 0
-12 5 -9 10 3 6 13 10 21 10 8 0 12 -4 9 -10z"/>
<path d="M24470 13070 c0 -13 -7 -20 -20 -20 -22 0 -29 -35 -7 -43 6 -2 0 -4
-14 -3 -26 1 -30 10 -16 34 10 14 -12 15 -126 6 -55 -5 -77 -11 -77 -20 0 -13
-12 -18 -36 -15 -7 1 -14 -5 -18 -14 -3 -9 -18 -15 -41 -15 -19 0 -35 -4 -35
-10 0 -5 -18 -10 -40 -10 -39 0 -40 -1 -40 -34 l0 -34 -80 -7 c-58 -5 -80 -11
-80 -21 0 -10 -12 -14 -40 -14 -36 0 -40 -2 -40 -25 0 -22 -4 -25 -40 -25 -39
0 -40 -1 -40 -34 l0 -33 -61 -7 c-34 -3 -88 -6 -120 -6 -46 0 -59 -3 -59 -15
0 -11 -11 -15 -40 -15 l-40 0 0 -66 0 -67 -60 6 c-82 9 -180 -2 -180 -19 0
-10 -13 -14 -40 -14 -29 0 -40 -4 -40 -15 0 -11 -11 -15 -40 -15 -22 0 -40 -4
-40 -10 0 -5 -18 -10 -40 -10 -39 0 -40 -1 -40 -34 l0 -34 -80 -7 c-58 -5 -80
-11 -80 -21 0 -10 -12 -14 -40 -14 -36 0 -40 -2 -40 -25 0 -22 -4 -25 -40 -25
-39 0 -40 -1 -40 -34 0 -19 6 -37 13 -39 10 -4 10 -6 0 -6 -7 -1 -13 -6 -13
-13 0 -6 3 -8 7 -5 3 4 15 0 24 -9 23 -21 84 -13 106 13 8 10 12 13 9 7 -3 -6
12 -16 34 -23 45 -13 51 -26 18 -37 -22 -7 -22 -8 7 -20 20 -9 24 -13 12 -14
-11 0 -31 13 -47 30 -26 28 -28 29 -44 11 -9 -10 -13 -21 -9 -24 3 -4 -8 -7
-25 -7 -20 0 -40 9 -58 26 -21 22 -28 24 -36 13 -6 -10 -8 -2 -6 25 l4 38 -59
-6 c-33 -3 -86 -6 -118 -6 -46 0 -59 -3 -59 -15 0 -11 -11 -15 -40 -15 l-40 0
0 -63 0 -63 -35 4 c-20 2 -74 1 -120 -3 -63 -5 -85 -10 -85 -21 0 -10 -12 -14
-40 -14 -29 0 -40 -4 -40 -15 0 -11 -11 -15 -40 -15 -22 0 -40 -4 -40 -10 0
-5 -18 -10 -40 -10 -39 0 -40 -1 -40 -34 l0 -34 -77 -5 c-43 -3 -91 -6 -108
-6 -52 -2 -49 -18 7 -37 47 -17 50 -19 25 -22 -16 -2 -42 1 -58 7 -18 6 -29 6
-29 0 0 -5 -21 -9 -46 -9 -37 0 -44 -3 -36 -13 17 -20 203 -10 225 12 6 6 20
5 39 -1 16 -6 32 -8 35 -4 4 3 -1 6 -10 6 -10 0 -17 4 -17 10 0 10 27 3 49
-14 12 -8 13 -8 7 2 -6 10 0 12 31 8 27 -4 31 -3 13 3 -22 7 -20 8 18 12 23 3
42 1 42 -4 0 -5 10 -6 23 -2 12 4 33 6 46 6 13 -1 30 4 38 10 7 6 34 13 61 14
34 1 46 6 45 16 -2 11 13 14 61 16 35 1 78 9 95 17 17 9 48 17 71 18 22 1 38
3 35 6 -4 4 -64 6 -75 2 -20 -8 -90 -6 -90 2 0 6 -8 7 -17 3 -10 -4 -26 -8
-36 -10 -9 -2 -22 -7 -27 -10 -6 -3 -10 -1 -10 5 0 6 -6 8 -12 4 -10 -5 -10
-3 0 7 10 10 42 14 125 14 71 0 120 5 134 13 12 6 37 11 55 10 18 -1 42 2 53
6 13 5 11 2 -5 -8 -32 -20 -18 -21 19 -1 16 8 32 11 37 7 5 -4 2 1 -5 11 -14
18 -51 23 -67 8 -13 -14 -84 10 -84 29 0 10 3 11 8 4 4 -6 15 -10 24 -8 10 1
20 -2 24 -7 3 -5 11 -9 17 -9 7 0 6 4 -3 10 -10 7 -3 8 25 5 33 -4 36 -3 15 5
-20 7 -16 8 19 5 24 -3 47 -8 50 -11 3 -4 -4 -4 -16 -1 -28 6 -30 -8 -4 -23
24 -12 34 -13 27 -1 -3 5 1 12 10 15 24 9 31 7 14 -4 -18 -12 -2 -12 25 0 11
5 14 9 7 9 -7 1 -10 6 -7 11 4 7 -3 9 -22 5 -23 -5 -25 -4 -10 5 9 6 15 16 11
21 -4 7 3 9 17 7 16 -2 24 -9 23 -21 -1 -11 5 -17 18 -17 12 0 17 4 12 13 -5
9 -4 9 6 0 10 -9 19 -9 41 3 36 18 38 27 3 14 -35 -14 -41 -12 -18 5 21 16 79
21 69 5 -7 -11 23 -2 41 12 7 5 22 11 34 13 13 2 25 7 29 11 3 4 -2 4 -11 1
-9 -3 -22 1 -28 9 -7 8 -11 14 -9 15 33 6 45 6 65 -1 14 -6 26 -6 29 0 3 5 13
6 23 3 13 -4 13 -2 -3 10 -23 19 -13 22 16 7 10 -6 19 -8 19 -6 0 13 -65 37
-88 33 -36 -7 -55 1 -39 17 14 15 90 9 81 -6 -4 -6 2 -8 17 -3 19 5 21 4 9 -4
-16 -12 -13 -13 40 -15 27 -1 28 1 13 12 -21 15 -9 16 20 0 19 -10 20 -9 9 4
-11 14 -8 15 20 13 33 -2 78 12 78 26 0 9 -30 20 -39 15 -4 -3 -8 4 -8 15 -2
22 11 23 52 4 l30 -14 -30 5 c-28 4 -28 4 -6 -6 17 -7 27 -7 37 1 7 6 25 12
40 14 15 1 32 9 38 17 6 8 16 13 23 11 6 -2 14 1 18 6 3 6 12 11 20 11 7 0 33
12 56 26 27 15 34 23 19 18 -14 -3 -32 -12 -40 -19 -8 -7 -33 -16 -55 -20 -30
-5 -36 -4 -25 4 8 6 23 11 33 11 10 0 39 11 64 25 25 14 53 25 62 24 9 -1 30
4 46 11 17 7 34 12 38 11 5 -1 6 3 2 9 -3 5 -1 10 5 10 6 0 9 4 5 9 -3 5 0 13
6 17 8 4 9 3 5 -5 -5 -8 0 -10 19 -7 15 3 30 8 34 12 3 4 -2 4 -12 1 -11 -4
-16 -3 -12 3 3 6 16 10 28 10 33 0 124 45 109 54 -7 4 -12 2 -12 -4 0 -7 -7
-9 -16 -6 -8 3 -12 2 -9 -4 3 -6 1 -10 -4 -10 -6 0 -11 5 -11 10 0 6 -15 10
-32 11 -18 0 -42 4 -52 8 -19 7 -19 8 2 13 12 4 22 2 22 -3 0 -5 35 -7 78 -5
96 5 89 3 89 21 0 9 -6 14 -13 11 -8 -3 -16 0 -20 6 -4 6 -3 8 4 4 5 -3 12 0
15 6 3 10 7 10 20 -1 9 -7 14 -18 10 -25 -3 -6 -2 -7 2 -3 13 12 15 37 2 37
-5 0 -8 2 -5 5 9 10 38 -7 31 -18 -3 -6 -1 -7 6 -3 6 4 8 13 4 19 -9 14 -12
57 -5 57 3 0 11 -8 19 -17 8 -10 11 -12 7 -4 -5 9 -3 12 4 7 17 -10 15 -29 -3
-23 -8 4 -17 2 -20 -3 -4 -6 3 -10 14 -10 28 0 37 3 33 14 -2 5 4 6 13 3 8 -4
15 -2 15 4 0 6 5 7 12 3 7 -4 8 -3 4 4 -4 7 -2 13 3 13 6 1 16 3 21 4 6 1 13
3 18 4 4 1 -1 7 -10 15 -16 12 -16 13 1 27 17 16 41 14 41 -2 0 -5 -3 -8 -7
-8 -5 1 -15 1 -23 0 -13 -1 -13 -2 0 -11 10 -6 21 -3 37 12 12 12 27 17 34 13
8 -5 10 -4 5 3 -4 7 -1 12 6 12 24 0 117 53 111 63 -4 6 0 8 10 4 10 -4 28 6
49 25 18 16 27 27 19 22 -9 -5 -12 -3 -7 4 5 9 13 9 26 2 25 -13 37 5 13 19
-11 6 -13 11 -5 11 7 0 10 4 7 10 -3 5 -1 18 5 27 9 15 10 13 7 -14 -2 -21 1
-34 10 -38 9 -3 11 0 7 7 -5 8 -2 9 11 4 16 -6 16 -4 4 10 -12 15 -11 16 9 10
18 -6 21 -4 16 9 -4 10 -13 14 -23 11 -11 -4 -10 -2 3 9 23 17 35 18 55 6 18
-11 43 -3 35 11 -4 6 -1 8 7 6 8 -3 25 4 38 16 13 11 21 15 16 7 -4 -7 6 -4
23 9 19 14 29 29 27 41 -3 15 0 17 21 9 15 -6 23 -6 19 -1 -3 5 -1 12 5 16 16
10 12 28 -4 22 -10 -4 -13 -1 -9 9 3 7 0 14 -6 14 -6 0 -11 -9 -11 -20z m-109
-81 l6 -26 -51 10 c-28 6 -45 12 -38 15 7 2 9 9 6 14 -4 7 -2 8 4 4 7 -4 20
-2 29 3 25 14 36 9 44 -20z m-131 7 c0 -2 -8 -10 -17 -17 -16 -13 -17 -12 -4
4 13 16 21 21 21 13z m40 -40 c0 -2 -7 -7 -16 -10 -8 -3 -12 -2 -9 4 6 10 25
14 25 6z m-163 -74 c9 -6 7 -11 -7 -19 -14 -10 -19 -9 -23 1 -9 23 7 32 30 18z
m-91 -29 c-10 -10 -19 5 -10 18 6 11 8 11 12 0 2 -7 1 -15 -2 -18z m136 10
c-8 -3 -10 -9 -3 -16 6 -8 1 -18 -15 -30 -13 -10 -24 -13 -24 -8 0 5 5 13 11
16 6 4 8 13 5 20 -5 13 8 23 29 23 6 0 4 -2 -3 -5z m-84 -47 c3 -14 0 -17 -12
-13 -9 4 -16 3 -16 -2 0 -5 -9 -11 -21 -14 -21 -6 -18 -27 4 -27 7 0 6 4 -3
10 -13 8 -13 10 2 10 17 0 36 -19 21 -21 -42 -7 -53 -5 -53 10 0 9 9 22 20 29
11 7 20 19 20 28 0 22 34 13 38 -10z m-203 -107 c-4 -5 -12 -9 -18 -8 -9 0 -8
2 1 6 6 2 9 10 6 15 -4 7 -2 8 5 4 6 -4 9 -12 6 -17z m-45 -21 c0 -6 9 -8 20
-5 24 6 27 -11 3 -20 -9 -4 -19 -1 -21 5 -2 7 -12 12 -23 12 -25 0 -25 15 1
17 11 1 20 -3 20 -9z m-83 -35 c0 -22 -15 -33 -45 -33 -20 0 -21 2 -10 20 7
10 21 21 33 23 11 2 20 5 21 6 0 0 1 -7 1 -16z m-309 -100 c2 -8 -5 -13 -17
-13 -12 0 -21 6 -21 16 0 18 31 15 38 -3z m46 -29 c19 -7 9 -34 -13 -34 -10 0
-17 9 -18 20 -2 21 5 24 31 14z m-100 -13 c3 -5 0 -11 -7 -14 -8 -3 -14 1 -14
9 0 16 13 19 21 5z m196 5 c0 -2 -7 -7 -16 -10 -8 -3 -12 -2 -9 4 6 10 25 14
25 6z m-127 -47 c7 0 1 -5 -13 -11 -24 -10 -24 -10 -5 -18 17 -6 14 -9 -18
-15 -23 -4 -43 -3 -49 3 -6 6 0 8 19 5 27 -5 27 -5 8 11 -19 15 -19 15 10 16
24 0 27 2 15 11 -12 9 -12 10 3 5 10 -3 24 -6 30 -7z m-239 -80 c-2 -4 10 -10
28 -12 18 -2 11 -3 -16 -1 -54 4 -84 20 -37 20 17 0 28 -3 25 -7z m-143 -42
c-13 -13 -26 -3 -16 12 3 6 11 8 17 5 6 -4 6 -10 -1 -17z m39 -27 c0 -5 -5
-10 -11 -10 -5 0 -7 5 -4 10 3 6 8 10 11 10 2 0 4 -4 4 -10z m77 -14 c4 -5 3
-6 -4 -2 -7 4 -21 2 -32 -4 -17 -9 -38 0 -26 12 8 7 53 3 62 -6z m-107 -50 c0
-2 -7 -7 -16 -10 -8 -3 -12 -2 -9 4 6 10 25 14 25 6z m-348 -118 c-5 -5 -20
-8 -33 -5 -22 4 -21 4 4 6 19 1 26 5 21 13 -5 7 -3 8 5 3 8 -5 9 -11 3 -17z
m35 -14 c-3 -3 -12 -4 -19 -1 -8 3 -5 6 6 6 11 1 17 -2 13 -5z m-518 -73 c4
-7 17 -13 29 -14 11 0 19 -4 16 -8 -5 -9 -30 -6 -40 4 -4 4 -43 7 -86 7 -68 0
-89 6 -74 21 11 10 148 2 155 -10z m-362 -147 c-39 -9 -64 -10 -79 -4 -19 9
-18 9 10 4 18 -3 32 -1 32 4 0 6 8 8 19 5 10 -3 22 0 25 5 3 6 16 8 28 4 17
-4 9 -9 -35 -18z m-118 12 c-2 -2 -22 -6 -44 -10 -29 -5 -36 -4 -25 3 13 10
79 16 69 7z m244 -3 c-13 -2 -33 -2 -45 0 -13 2 -3 4 22 4 25 0 35 -2 23 -4z
m-233 -23 c18 -12 2 -12 -25 0 -13 6 -15 9 -5 9 8 0 22 -4 30 -9z m197 4 c-3
-3 -12 -4 -19 -1 -8 3 -5 6 6 6 11 1 17 -2 13 -5z"/>
<path d="M19090 13047 c0 -2 6 -10 14 -16 11 -9 16 -9 22 1 4 7 4 10 -1 6 -4
-4 -14 -3 -22 3 -7 6 -13 9 -13 6z"/>
<path d="M19250 12866 c0 -2 8 -10 18 -17 15 -13 16 -12 3 4 -13 16 -21 21
-21 13z"/>
<path d="M19540 12586 c0 -2 8 -10 18 -17 15 -13 16 -12 3 4 -13 16 -21 21
-21 13z"/>
<path d="M19737 12459 c7 -7 15 -10 18 -7 3 3 -2 9 -12 12 -14 6 -15 5 -6 -5z"/>
<path d="M19890 12380 c0 -5 5 -10 11 -10 5 0 7 5 4 10 -3 6 -8 10 -11 10 -2
0 -4 -4 -4 -10z"/>
<path d="M19825 12360 c10 -11 20 -20 23 -20 3 0 -3 9 -13 20 -10 11 -20 20
-23 20 -3 0 3 -9 13 -20z"/>
<path d="M24570 12272 c-14 -10 -26 -24 -28 -32 -5 -20 -20 -35 -28 -27 -4 4
-1 14 7 24 8 9 -6 2 -30 -15 -24 -18 -50 -32 -58 -32 -7 0 -13 -4 -13 -10 0
-5 6 -7 14 -4 18 7 30 -12 14 -23 -21 -13 -39 -12 -44 2 -4 11 -13 9 -40 -7
-31 -18 -38 -38 -13 -38 6 0 8 4 4 9 -3 5 -1 12 5 16 5 3 10 -1 10 -9 0 -8 8
-20 18 -26 14 -8 11 -9 -13 -5 -29 5 -28 5 5 -9 27 -11 30 -15 13 -15 -12 -1
-34 10 -48 23 -17 16 -33 22 -43 18 -16 -6 -16 -7 1 -10 25 -5 21 -17 -7 -17
-13 0 -22 5 -19 10 2 6 -2 2 -10 -8 -8 -10 -19 -17 -23 -16 -21 4 -25 -2 -13
-18 10 -11 10 -14 2 -9 -8 4 -13 2 -13 -4 0 -6 -5 -8 -10 -5 -6 4 -8 11 -5 16
3 5 -1 6 -9 3 -23 -9 -8 -32 25 -39 50 -11 29 -35 -31 -35 -20 0 -29 6 -33 21
-4 16 -2 19 11 14 9 -4 26 -9 37 -11 18 -4 18 -3 -1 5 -12 5 -25 14 -28 20 -5
7 -13 7 -26 -1 -10 -7 -16 -16 -13 -21 3 -5 0 -8 -8 -5 -7 2 -22 -4 -33 -13
-10 -10 -24 -15 -30 -12 -6 4 -4 -1 4 -12 18 -22 18 -18 1 -38 -15 -19 -36
-23 -25 -6 4 8 -1 9 -17 4 -18 -5 -21 -4 -9 4 8 6 22 8 31 6 9 -3 16 1 16 9 0
7 -10 14 -23 14 -14 0 -21 -5 -17 -11 4 -6 0 -8 -9 -5 -9 4 -21 -4 -32 -23 -9
-16 -22 -29 -27 -29 -6 0 -7 5 -4 10 11 17 -7 11 -21 -7 -8 -11 -13 -13 -14
-5 0 8 -6 6 -18 -5 -11 -10 -17 -22 -14 -27 3 -5 -7 -7 -21 -4 -14 3 -25 1
-24 -5 1 -5 -4 -12 -12 -15 -8 -3 -11 0 -7 7 5 7 1 9 -9 4 -13 -5 -14 -8 -3
-15 9 -6 8 -8 -7 -6 -12 2 -33 -7 -49 -19 -16 -13 -32 -20 -37 -17 -5 3 -9 1
-9 -5 0 -16 56 -5 98 19 l37 22 -25 -23 c-23 -20 -23 -22 -4 -17 13 3 21 0 21
-7 0 -8 -7 -11 -15 -7 -10 3 -13 1 -8 -6 5 -8 2 -10 -8 -6 -9 3 -13 11 -9 17
4 7 0 8 -13 2 -10 -4 -37 -8 -59 -7 -44 0 -95 -15 -95 -29 0 -5 -7 -9 -15 -9
-24 0 -65 -22 -59 -32 3 -5 17 -2 30 7 19 12 29 13 42 5 14 -9 14 -10 -6 -5
-16 5 -22 3 -20 -7 2 -9 -9 -12 -37 -11 -22 1 -53 -3 -69 -9 l-29 -12 22 -17
c15 -12 17 -19 9 -22 -10 -4 -10 -6 0 -6 7 -1 17 10 22 23 8 22 13 24 38 17
16 -5 39 -14 51 -21 13 -6 35 -14 49 -16 32 -6 36 -9 27 -23 -10 -18 -34 -13
-71 15 -19 15 -34 21 -34 16 0 -6 -7 -9 -16 -5 -8 3 -26 0 -38 -6 -18 -10 -29
-10 -57 3 -34 15 -34 15 -4 10 27 -4 28 -3 7 6 -17 7 -30 5 -53 -9 -30 -18
-30 -19 -6 -18 14 1 23 5 21 9 -2 4 9 0 26 -8 36 -19 40 -27 5 -14 -18 7 -25
6 -25 -3 0 -8 -3 -8 -9 2 -5 7 -14 11 -20 7 -6 -4 -20 -2 -32 5 -12 6 -19 7
-15 1 3 -5 -2 -13 -12 -17 -16 -6 -16 -7 0 -16 18 -10 14 -39 -4 -39 -6 0 -5
6 2 15 10 13 9 15 -9 15 -12 0 -19 5 -16 10 9 14 4 13 -60 -11 -36 -13 -55
-26 -55 -37 0 -12 3 -13 12 -4 15 15 45 16 53 2 4 -6 -1 -7 -11 -3 -12 4 -15
3 -10 -5 9 -15 39 -15 53 -1 13 13 55 8 60 -7 6 -19 -81 -30 -131 -18 -19 5
-31 2 -38 -7 -7 -10 -8 -6 -5 14 3 19 0 27 -10 27 -8 0 -11 -5 -7 -11 4 -8 0
-9 -15 -4 -13 4 -21 2 -21 -5 0 -7 -6 -10 -13 -7 -8 3 -20 1 -28 -4 -11 -7
-11 -9 -1 -9 7 0 11 -4 8 -9 -4 -5 3 -7 14 -4 11 3 23 9 26 14 6 11 24 12 24
1 0 -4 -15 -13 -32 -21 -18 -7 -45 -19 -60 -26 -16 -8 -30 -10 -34 -4 -3 5
-17 6 -32 3 -21 -4 -24 -3 -12 5 25 18 5 12 -62 -16 -35 -15 -68 -34 -74 -42
-7 -8 -21 -12 -37 -9 -15 3 -24 2 -22 -3 3 -4 1 -10 -5 -14 -5 -3 -10 -1 -10
6 0 8 -4 8 -15 -1 -8 -7 -15 -10 -15 -6 0 4 -10 0 -22 -8 -13 -8 -42 -18 -65
-22 -24 -4 -43 -10 -43 -15 0 -5 8 -6 18 -3 14 5 14 4 3 -4 -10 -7 -21 -7 -32
-1 -27 14 -36 10 -15 -6 22 -17 2 -22 -23 -6 -9 6 -29 3 -55 -8 -23 -10 -48
-16 -56 -14 -12 4 -12 3 -1 -5 10 -8 9 -12 -8 -24 -23 -16 -18 -28 11 -28 11
0 16 -5 13 -10 -4 -7 -19 -3 -41 11 -32 19 -36 20 -77 6 -35 -13 -38 -16 -17
-17 14 -1 31 -2 38 -1 6 1 12 -5 12 -14 0 -8 -9 -15 -20 -15 -11 0 -20 4 -20
9 0 9 -90 35 -97 27 -2 -2 5 -7 16 -11 27 -8 17 -25 -14 -25 -27 0 -41 15 -23
24 7 3 0 3 -17 -1 -16 -3 -40 -7 -53 -7 -13 -1 -20 -6 -18 -13 5 -12 -51 -30
-61 -19 -4 3 1 6 10 6 10 0 17 4 17 8 0 5 -15 8 -34 8 -25 -1 -32 -5 -28 -16
5 -12 3 -13 -9 -4 -8 7 -27 12 -43 12 -25 0 -27 -2 -10 -11 10 -6 32 -14 49
-18 l30 -7 -27 -1 c-16 -1 -28 -6 -28 -11 0 -6 17 -8 43 -5 36 5 38 4 17 -5
-36 -16 -94 -8 -98 14 -3 14 1 17 20 12 13 -3 9 1 -9 9 -29 13 -44 13 -135 0
-57 -9 -137 -16 -178 -16 l-75 -1 3 -1956 c1 -1280 6 -1959 12 -1967 12 -15
16 -82 6 -112 -4 -13 -1 -34 9 -53 9 -17 13 -41 10 -53 -5 -17 -4 -19 4 -7 6
8 8 31 5 51 -4 23 -2 39 5 44 8 5 10 -2 6 -22 -5 -22 -4 -25 5 -13 12 15 11 8
-6 -50 -3 -11 -2 -25 3 -32 4 -7 8 -28 8 -45 1 -18 4 -36 8 -39 4 -4 7 -14 7
-23 0 -9 5 -33 11 -54 8 -29 13 -36 23 -28 7 6 11 23 8 40 -2 16 0 37 6 46 8
15 11 11 16 -20 5 -23 3 -42 -3 -48 -14 -14 -14 -30 -1 -22 14 8 13 -8 -1 -22
-15 -15 -3 -65 21 -93 11 -13 17 -27 14 -31 -3 -5 1 -12 9 -15 9 -3 18 -17 22
-32 3 -14 16 -40 28 -56 12 -17 29 -44 38 -61 9 -16 20 -30 25 -30 5 0 15 -4
22 -8 16 -11 32 0 33 21 0 10 3 12 5 5 3 -7 12 -9 20 -6 8 3 14 2 14 -1 0 -4
-11 -11 -25 -16 -18 -7 -23 -14 -18 -26 5 -13 3 -15 -7 -9 -8 5 -4 -6 9 -23
27 -39 40 -43 15 -4 -15 23 -15 25 -1 13 15 -12 21 -9 18 12 -2 13 17 7 23 -8
3 -8 0 -14 -7 -12 -7 1 -11 -6 -9 -18 2 -11 4 -25 4 -32 1 -6 8 -9 16 -5 9 3
13 1 9 -5 -4 -6 6 -22 22 -36 17 -14 28 -27 25 -29 -2 -3 7 -15 20 -27 l23
-22 24 20 c19 17 21 20 7 21 -9 0 -21 -7 -26 -16 -6 -11 -11 -13 -16 -5 -4 6
-3 11 3 11 7 0 7 8 1 24 -12 33 -2 39 28 16 32 -26 39 -25 46 3 7 28 36 32 36
4 0 -11 -9 -21 -20 -24 -12 -3 -20 -12 -18 -22 3 -19 -9 -41 -22 -41 -5 0 -7
8 -3 18 5 14 4 15 -8 4 -12 -11 -8 -18 22 -47 20 -19 40 -31 43 -28 4 4 17 8
29 10 22 3 22 3 -2 -11 l-23 -13 42 -31 c25 -18 49 -28 58 -25 11 5 13 3 7 -7
-6 -10 -4 -12 9 -7 10 4 20 7 24 7 3 0 -3 6 -14 14 -15 11 -22 12 -34 3 -13
-10 -13 -10 -1 6 17 22 26 22 51 -3 11 -11 17 -20 13 -20 -4 0 1 -6 12 -13 13
-10 15 -16 6 -21 -6 -4 -9 -12 -5 -17 3 -5 9 -7 14 -4 5 3 18 -3 29 -14 11
-11 33 -24 48 -27 16 -4 31 -11 34 -17 4 -5 13 -6 20 -2 9 6 8 10 -7 16 -13 5
-14 8 -4 8 8 0 22 -4 30 -9 10 -6 11 -10 3 -10 -7 0 -13 -5 -13 -11 0 -5 5 -7
10 -4 6 3 10 2 10 -3 0 -5 11 -7 24 -5 13 3 27 0 30 -6 5 -7 1 -8 -11 -4 -10
3 -15 3 -11 -2 4 -4 23 -9 42 -12 27 -3 38 1 48 17 7 11 18 20 25 20 17 0 17
-20 1 -21 -7 -1 -2 -5 12 -9 25 -8 24 -8 -5 -9 -16 -1 -37 -6 -45 -11 -11 -8
-7 -9 14 -4 21 5 27 4 22 -5 -6 -8 0 -10 18 -5 15 3 26 2 26 -4 0 -5 12 -7 28
-5 22 4 24 2 12 -7 -12 -9 -10 -10 9 -5 15 5 26 2 32 -6 7 -12 12 -12 29 -1
17 10 21 10 26 -1 5 -13 28 -17 121 -20 18 0 30 -4 27 -8 -2 -4 10 -3 28 2 21
6 1561 9 4049 9 2209 0 4024 3 4034 6 14 6 16 4 10 -6 -6 -10 -4 -12 11 -6 10
4 31 9 46 11 15 2 35 8 45 14 10 5 29 9 43 10 14 0 39 3 57 6 31 7 31 8 14 27
-13 14 -31 19 -62 18 -52 -1 -107 9 -115 21 -3 5 22 9 55 9 36 0 61 -4 61 -11
0 -5 4 -8 10 -4 5 3 26 -4 47 -15 41 -22 81 -29 53 -9 -12 9 -11 10 8 6 14 -3
20 -1 15 6 -4 7 0 8 12 4 9 -4 24 -2 31 4 7 6 18 8 24 4 5 -3 10 -2 10 4 0 6
7 8 15 4 10 -3 15 -1 13 7 -2 7 3 15 11 18 8 3 11 0 7 -7 -5 -7 -1 -9 9 -4 14
5 14 8 3 15 -9 7 -3 8 17 4 22 -5 26 -4 15 4 -8 5 -26 8 -40 7 -14 -2 -19 -2
-12 0 21 7 4 21 -21 17 -20 -4 -20 -4 -2 5 12 5 25 5 32 -1 7 -6 20 -8 28 -4
9 3 14 2 11 -3 -3 -5 3 -11 14 -14 23 -6 37 8 18 17 -7 3 -3 3 10 0 13 -3 22
-1 22 6 0 7 7 9 16 6 14 -5 15 -4 4 9 -10 12 -11 18 -1 28 10 9 11 8 6 -4 -5
-13 0 -16 19 -16 28 0 35 14 11 23 -18 7 -12 20 13 26 11 3 19 0 19 -7 0 -7
-7 -11 -16 -8 -13 4 -14 3 -2 -5 16 -11 71 11 71 28 0 5 11 12 24 16 21 5 23
9 14 24 -9 14 -9 22 1 34 12 14 11 19 -3 34 -18 21 -21 38 -7 46 5 4 7 -4 4
-16 -4 -21 -3 -22 10 -5 8 9 19 17 25 17 6 0 14 5 18 12 5 8 0 9 -14 6 -28 -8
-28 -6 7 20 21 15 32 18 37 10 5 -7 3 -8 -6 -3 -10 6 -12 4 -7 -8 3 -8 -1 -21
-9 -27 -8 -7 -14 -19 -14 -26 0 -8 -10 -14 -22 -14 -20 0 -21 -1 -3 -20 10
-11 23 -17 29 -13 6 4 5 -1 -3 -11 -8 -9 -19 -15 -26 -12 -6 2 -12 -2 -12 -9
0 -13 16 -16 27 -5 3 3 26 21 52 40 28 21 45 41 43 49 -3 8 0 11 9 8 20 -8 39
16 25 30 -15 15 -3 32 21 30 10 -1 16 -5 13 -10 -3 -4 -12 -6 -22 -2 -13 5
-14 4 -3 -6 10 -11 15 -10 28 3 22 21 11 37 -23 33 -24 -2 -25 -1 -10 10 9 6
14 15 10 18 -3 4 -1 7 6 7 8 0 11 -6 7 -16 -3 -9 -2 -12 5 -9 5 4 16 2 23 -4
10 -8 16 -8 25 3 8 9 8 16 2 20 -10 7 -9 51 1 51 3 0 16 9 29 20 13 11 18 13
11 4 -6 -9 -9 -19 -5 -22 9 -9 23 -9 21 1 -3 14 14 42 23 36 5 -3 6 3 2 12 -4
12 -3 15 5 10 13 -8 68 72 63 93 -1 7 2 10 8 6 7 -4 8 0 4 11 -4 11 -2 15 4
11 6 -4 13 4 16 18 5 31 -9 43 -16 14 -4 -13 -10 -18 -18 -13 -7 4 -10 3 -6
-3 7 -11 -19 -53 -33 -53 -5 0 -16 8 -26 17 -16 16 -16 16 -9 -7 10 -31 26
-42 41 -29 9 8 11 5 7 -11 -4 -16 -8 -18 -19 -9 -10 8 -15 5 -20 -16 -5 -19
-12 -25 -28 -23 -11 2 -21 -3 -22 -9 -3 -26 -4 -28 -13 -14 -10 15 24 56 38
46 15 -9 20 23 8 54 -10 26 -9 33 7 44 11 8 16 19 12 25 -4 7 -1 12 8 12 23 0
31 -22 12 -36 -11 -8 -13 -14 -7 -19 16 -9 31 3 31 26 0 11 7 19 16 19 9 0 14
6 12 12 -5 15 15 38 34 38 9 0 10 -2 1 -8 -8 -5 -7 -12 4 -27 13 -16 15 -17
10 -2 -4 9 -3 17 1 17 4 0 9 10 9 22 1 13 8 27 15 33 17 13 55 91 63 130 5 23
4 26 -4 15 -9 -13 -11 -13 -11 1 0 9 7 19 15 23 8 3 15 17 15 31 0 14 4 25 8
25 5 0 9 16 10 35 1 19 10 61 21 94 13 40 18 76 15 106 -3 27 -1 45 5 45 6 0
11 51 13 129 2 71 0 127 -4 125 -4 -3 -5 10 -2 28 l5 33 -20 -35 c-21 -36 -28
-29 -12 12 5 13 12 48 15 78 6 51 6 54 -9 35 -9 -11 -15 -31 -14 -45 3 -57 -1
-66 -16 -31 -18 41 -19 78 -3 83 10 4 10 10 0 32 -6 15 -11 39 -11 54 1 20 2
22 6 7 2 -11 6 -30 9 -42 2 -13 12 -23 20 -23 15 0 15 3 -1 26 -10 16 -14 35
-10 51 4 18 2 23 -6 17 -8 -5 -10 1 -7 19 4 22 3 25 -12 17 -16 -8 -27 -42
-33 -92 -1 -10 -7 -20 -14 -22 -9 -4 -13 5 -13 28 0 21 6 36 15 40 8 3 12 12
9 21 -4 8 -1 22 6 30 7 8 9 15 4 15 -5 0 -2 5 6 10 12 8 11 12 -7 32 -16 17
-19 28 -12 45 6 16 2 38 -13 73 -11 28 -23 49 -25 46 -3 -2 0 -14 6 -25 10
-17 9 -20 -4 -15 -17 7 -30 47 -21 69 3 8 1 15 -5 15 -6 0 -7 5 -4 10 3 6 1
10 -4 10 -6 0 -11 8 -11 17 0 12 -3 14 -11 6 -8 -8 -8 -17 1 -33 7 -12 8 -20
3 -17 -6 4 -10 -12 -11 -35 -2 -47 -5 -53 -27 -45 -24 10 -21 121 5 147 22 22
25 19 10 -11 -7 -12 -7 -25 -1 -36 8 -15 9 -13 9 7 0 14 2 34 4 45 2 16 -2 19
-22 17 -23 -2 -23 -2 -6 9 10 6 14 14 9 18 -4 3 -14 19 -21 34 -7 15 -16 26
-20 23 -5 -3 -16 10 -25 29 -9 19 -24 35 -32 35 -9 0 -13 5 -10 10 4 6 -7 26
-23 44 -25 29 -30 31 -41 17 -10 -14 -10 -13 -5 7 5 19 -6 34 -62 87 -37 35
-71 62 -76 59 -5 -3 -7 -1 -6 4 3 10 -153 132 -168 132 -4 0 -16 8 -27 18 -19
17 -19 16 -6 -5 8 -13 21 -23 31 -23 9 0 20 -5 23 -10 4 -6 -3 -9 -14 -7 -29
4 -73 45 -65 59 5 7 3 8 -5 3 -7 -4 -11 -16 -8 -26 4 -16 2 -17 -15 -8 -19 10
-19 11 -1 24 10 7 16 15 13 17 -28 18 -71 38 -84 38 -9 0 -16 4 -16 9 0 5 -9
11 -20 14 -11 3 -18 1 -14 -4 3 -5 0 -9 -5 -9 -6 0 -11 -8 -12 -17 -1 -12 -4
-9 -8 7 -4 14 -17 30 -30 36 -16 8 -19 13 -9 18 7 3 3 3 -9 0 -13 -3 -23 -1
-23 4 0 9 -56 26 -74 23 -4 -1 -14 3 -21 9 -7 6 -19 8 -26 5 -26 -10 -79 -12
-79 -4 0 15 -39 29 -107 38 -38 5 -77 13 -87 17 -14 5 -17 4 -12 -4 10 -17
-6337 -17 -6383 -1 l-31 11 -2 1696 c-2 934 0 1702 4 1708 8 12 -10 34 -26 33
-6 0 -22 -8 -36 -17z m45 -3 c10 -15 -1 -23 -20 -15 -9 3 -13 10 -10 16 8 13
22 13 30 -1z m-59 -73 c2 -22 0 -23 -17 -13 -18 11 -18 13 -2 25 9 6 17 12 17
12 1 0 2 -11 2 -24z m-46 0 c0 -9 -7 -12 -22 -9 -19 4 -21 3 -8 -7 13 -10 12
-11 -3 -6 -10 3 -21 6 -25 6 -12 0 33 29 46 30 6 0 12 -6 12 -14z m-30 -62 c0
-3 -6 -12 -14 -20 -17 -16 -56 -19 -56 -4 0 6 9 10 19 10 11 0 23 5 26 10 7
11 25 14 25 4z m53 -34 c-4 -15 0 -20 15 -20 12 0 26 8 31 18 9 15 10 16 11 0
0 -21 -30 -31 -65 -22 -25 6 -25 7 -9 25 21 24 23 24 17 -1z m-46 -16 c-3 -3
-12 -4 -19 -1 -8 3 -5 6 6 6 11 1 17 -2 13 -5z m-157 -49 c0 -9 -6 -12 -15 -9
-8 4 -15 10 -15 15 0 5 7 9 15 9 8 0 15 -7 15 -15z m-5 -76 c0 -18 -6 -24 -22
-25 -25 -1 -31 24 -11 44 18 18 33 9 33 -19z m-208 -6 c-9 -9 -20 -13 -24 -9
-4 4 1 14 11 22 25 18 35 8 13 -13z m119 -26 c12 -12 -49 -20 -68 -8 -14 8
-18 8 -18 -1 0 -9 -3 -9 -11 -1 -20 20 -1 30 46 23 25 -4 48 -10 51 -13z
m-266 -58 c0 -5 -11 -9 -24 -9 -39 0 -43 -63 -5 -75 10 -4 19 -10 19 -15 0 -4
-11 -3 -25 3 -14 7 -25 19 -25 27 0 11 -3 11 -12 2 -17 -17 -27 -15 -24 5 2 9
9 19 17 22 8 3 14 13 14 21 -1 8 0 17 1 20 4 9 64 7 64 -1z m-13 -25 c-3 -3
-12 -4 -19 -1 -8 3 -5 6 6 6 11 1 17 -2 13 -5z m43 -34 c0 -5 -2 -10 -4 -10
-3 0 -8 5 -11 10 -3 6 -1 10 4 10 6 0 11 -4 11 -10z m-210 -4 c0 -2 -7 -7 -16
-10 -8 -3 -12 -2 -9 4 6 10 25 14 25 6z m-115 -56 c-3 -5 -12 -10 -18 -10 -7
0 -6 4 3 10 19 12 23 12 15 0z m10 -59 c7 -12 -26 -31 -54 -31 -27 0 -27 12 2
26 29 15 44 16 52 5z m-170 -21 c-3 -5 -12 -10 -18 -10 -7 0 -6 4 3 10 19 12
23 12 15 0z m-151 -208 c3 -5 -1 -9 -9 -9 -8 0 -12 4 -9 9 3 4 7 8 9 8 2 0 6
-4 9 -8z m-38 -11 c-4 -5 -3 -11 1 -14 5 -2 2 -2 -5 0 -8 1 -28 4 -45 4 -30 2
-29 2 8 9 22 4 41 8 43 9 2 0 1 -3 -2 -8z m-166 -11 c0 -5 -7 -7 -15 -4 -8 4
-15 8 -15 10 0 2 7 4 15 4 8 0 15 -4 15 -10z m-200 -20 c0 -5 -6 -10 -12 -10
-7 -1 -26 -7 -43 -15 l-30 -15 40 4 40 5 -33 -11 c-24 -8 -36 -8 -44 0 -9 9 0
17 33 31 52 24 49 24 49 11z m80 -19 c0 -12 -7 -18 -20 -17 -19 1 -30 21 -11
21 5 0 13 3 17 8 11 11 14 9 14 -12z m-173 -37 c-3 -3 -12 -4 -19 -1 -8 3 -5
6 6 6 11 1 17 -2 13 -5z m73 -8 c-14 -8 -29 -12 -34 -8 -10 6 20 20 44 21 8 0
4 -6 -10 -13z m34 -27 c-6 -11 -24 -2 -24 11 0 5 7 7 15 4 8 -4 12 -10 9 -15z
m-100 -14 c20 -10 36 -21 36 -26 0 -6 -9 -5 -21 1 -18 10 -62 16 -136 19 -13
1 -23 5 -23 10 0 24 92 21 144 -4z m137 5 c6 0 7 5 4 10 -3 6 1 10 9 10 8 0
14 -8 13 -19 -1 -16 -14 -20 -37 -11 -3 1 -8 2 -12 1 -4 0 -4 7 -1 16 4 11 8
13 11 5 2 -7 8 -12 13 -12z m-291 -20 c0 -5 -5 -10 -11 -10 -5 0 -8 -4 -5 -8
3 -5 -9 -6 -27 -3 -26 4 -28 6 -9 9 12 2 20 8 17 13 -4 5 3 9 14 9 12 0 21 -4
21 -10z m-303 -76 c-3 -3 -12 -4 -19 -1 -8 3 -5 6 6 6 11 1 17 -2 13 -5z m20
-20 c-3 -3 -12 -4 -19 -1 -8 3 -5 6 6 6 11 1 17 -2 13 -5z m22 -35 c-20 -12
-62 -11 -54 1 4 6 10 8 14 6 4 -3 13 -1 21 4 8 5 18 6 23 3 5 -3 3 -9 -4 -14z
m-504 -19 c-11 -5 -31 -8 -45 -8 -23 0 -22 1 5 8 42 11 65 11 40 0z m195 -20
c-24 -15 -36 -11 -14 4 10 8 21 12 24 10 2 -3 -2 -9 -10 -14z m-317 3 c-7 -2
-19 -2 -25 0 -7 3 -2 5 12 5 14 0 19 -2 13 -5z m127 -3 c-8 -5 -31 -9 -50 -8
l-35 1 40 7 c59 11 61 11 45 0z m278 -2 c-6 -17 -68 -23 -68 -8 0 8 9 10 26 6
17 -5 23 -3 19 4 -3 5 1 10 10 10 9 0 15 -6 13 -12z m111 -1 c9 -11 4 -14 -26
-12 -20 0 -38 6 -41 13 -5 17 53 16 67 -1z m2312 -2316 c8 12 11 12 20 -1 8
-11 12 -12 16 -2 2 6 9 12 14 12 6 0 7 -5 3 -12 -4 -6 -3 -8 3 -5 12 8 6413
10 6421 3 2 -3 -1421 -6 -3164 -6 -2183 0 -3170 -4 -3174 -11 -7 -11 -140 -6
-159 5 -6 4 -7 14 -3 24 6 15 7 15 10 -2 3 -15 6 -16 13 -5z m6556 -7 c-3 -3
-12 -4 -19 -1 -8 3 -5 6 6 6 11 1 17 -2 13 -5z m-22 -34 c3 -5 -1 -10 -9 -10
-9 0 -16 5 -16 10 0 6 4 10 9 10 6 0 13 -4 16 -10z m155 0 c0 -5 -5 -10 -11
-10 -5 0 -7 5 -4 10 3 6 8 10 11 10 2 0 4 -4 4 -10z m75 -10 l20 -9 -20 -1
-20 -1 20 -9 c11 -5 14 -9 7 -9 -7 -1 -10 -6 -6 -12 4 -7 1 -10 -7 -7 -8 3
-13 11 -11 17 3 17 -24 13 -43 -6 -15 -14 -22 -15 -51 -4 -21 8 -51 10 -74 6
-29 -5 -40 -3 -40 6 0 7 3 9 7 6 3 -4 12 -2 20 5 7 6 16 8 19 5 3 -3 18 -2 34
3 16 5 32 4 37 -1 6 -6 29 -7 54 -3 34 6 39 9 24 15 -13 5 -14 8 -5 8 8 0 24
-4 35 -9z m-387 -27 c3 -10 -641 -13 -3197 -13 -2124 0 -3201 3 -3201 10 0 8
4770 19 6314 15 55 0 81 -4 84 -12z m439 -9 c-3 -3 -12 -4 -19 -1 -8 3 -5 6 6
6 11 1 17 -2 13 -5z m97 -29 c3 -8 13 -15 21 -15 9 0 13 -5 10 -10 -4 -7 2 -9
18 -5 14 4 28 2 31 -4 8 -12 5 -13 -36 -16 -15 -1 -25 2 -22 7 3 4 -6 12 -20
18 -14 5 -26 16 -26 25 0 19 16 20 24 0z m50 -99 c10 -9 15 -20 10 -27 -4 -8
-3 -10 4 -5 7 4 12 2 12 -3 0 -20 -30 -11 -46 14 -9 14 -23 25 -30 25 -8 0
-14 5 -14 10 0 6 -11 10 -25 10 -18 0 -25 5 -25 20 0 20 1 20 48 -5 26 -13 55
-31 66 -39z m176 -15 c0 -5 -11 -11 -25 -13 -14 -3 -25 -2 -25 3 0 4 10 10 23
12 12 2 23 5 25 6 1 0 2 -3 2 -8z m-73 -17 c-3 -3 -12 -4 -19 -1 -8 3 -5 6 6
6 11 1 17 -2 13 -5z m167 -56 c11 -10 16 -18 12 -18 -12 0 -66 43 -66 53 0 9
16 -1 54 -35z m80 -74 c4 -12 2 -12 -14 -4 -11 6 -20 15 -20 20 0 14 28 1 34
-16z m-21 -13 c7 -7 7 -11 1 -11 -5 0 -15 5 -22 12 -7 7 -12 8 -12 2 0 -5 4
-14 10 -20 6 -6 -9 -10 -40 -11 -56 -2 -74 12 -35 27 14 5 24 14 21 19 -8 12
64 -5 77 -18z m67 -16 c9 -10 9 -15 1 -15 -6 0 -11 -5 -11 -11 0 -6 6 -9 14
-6 8 3 20 -1 27 -9 10 -12 9 -18 -6 -32 -13 -13 -19 -14 -22 -4 -3 6 -11 12
-19 12 -8 0 -14 5 -14 11 0 5 4 8 8 5 5 -3 9 8 9 24 0 16 -4 27 -9 24 -4 -3
-8 0 -8 5 0 16 16 13 30 -4z m108 -130 c-3 -4 -16 9 -28 27 l-23 33 28 -27
c16 -15 26 -30 23 -33z m-100 5 c7 -12 8 -20 2 -20 -5 0 -10 5 -10 10 0 6 -7
10 -15 10 -8 0 -15 5 -15 10 0 17 25 11 38 -10z m66 -22 c-5 -8 -2 -9 10 -5 9
4 15 3 12 -1 -3 -5 -22 -9 -43 -9 -31 -1 -34 0 -13 6 19 6 24 13 23 32 -2 21
-1 22 8 6 5 -9 7 -22 3 -29z m106 -73 c4 3 7 -3 5 -12 -2 -10 -4 -22 -4 -28
-2 -23 -36 29 -37 57 l-2 32 15 -27 c7 -15 18 -25 23 -22z m-21 -171 c2 -82 0
-105 -10 -102 -10 3 -13 32 -14 99 -1 98 2 122 14 114 4 -2 9 -52 10 -111z
m171 -104 c8 -15 7 -27 -3 -46 -12 -22 -15 -24 -20 -10 -4 9 -3 15 2 12 16
-10 20 34 4 49 -8 8 -10 15 -4 15 6 0 15 -9 21 -20z m-19 -133 c-8 -8 -11 -5
-11 9 0 27 14 41 18 19 2 -9 -1 -22 -7 -28z m49 -162 c0 -8 -4 -15 -10 -15 -5
0 -10 -15 -10 -34 0 -19 -4 -38 -10 -41 -6 -4 -10 10 -10 34 0 23 5 41 10 41
6 0 10 7 10 15 0 8 5 15 10 15 6 0 10 -7 10 -15z m21 -137 c-7 -51 -34 -67
-29 -17 3 32 16 58 29 59 3 0 3 -19 0 -42z m-74 -30 c-3 -7 -5 -2 -5 12 0 14
2 19 5 13 2 -7 2 -19 0 -25z m120 -178 c2 -8 -1 -21 -6 -29 -8 -12 -12 -12
-24 -2 -13 10 -14 21 -8 49 3 10 36 -6 38 -18z m-10782 0 c3 -5 1 -10 -4 -10
-6 0 -11 5 -11 10 0 6 2 10 4 10 3 0 8 -4 11 -10z m86 -48 c-6 -2 -11 -23 -11
-47 0 -33 -4 -44 -18 -47 -15 -4 -18 0 -18 18 1 13 6 27 10 31 5 4 6 3 2 -4
-3 -6 -2 -14 4 -18 6 -4 10 5 10 21 0 15 6 45 13 68 12 40 12 40 15 11 2 -16
-1 -31 -7 -33z m10589 44 c0 -8 -4 -18 -10 -21 -5 -3 -10 3 -10 14 0 12 5 21
10 21 6 0 10 -6 10 -14z m96 -128 c-3 -35 -7 -73 -9 -85 -4 -26 -17 -43 -17
-22 0 24 24 169 28 169 2 0 1 -28 -2 -62z m-52 36 c20 -8 21 -54 1 -54 -8 0
-17 -14 -21 -35 -3 -19 -9 -33 -13 -30 -14 8 0 125 14 125 2 0 10 -3 19 -6z
m-10732 -56 c-8 -8 -9 -4 -5 13 4 13 8 18 11 10 2 -7 -1 -18 -6 -23z m38 -26
c0 -21 -2 -24 -10 -12 -13 20 -13 53 0 45 6 -3 10 -18 10 -33z m67 -14 c-3 -7
-5 -2 -5 12 0 14 2 19 5 13 2 -7 2 -19 0 -25z m-17 -82 c0 -19 5 -38 10 -41 6
-3 10 -15 10 -26 0 -27 -24 -19 -28 9 -2 12 -8 22 -13 22 -5 0 -9 16 -9 35 0
24 5 35 15 35 10 0 15 -10 15 -34z m10665 -46 c-3 -5 -12 -10 -18 -10 -7 0 -6
4 3 10 19 12 23 12 15 0z m-20 -70 c3 -5 -1 -10 -10 -10 -9 0 -13 5 -10 10 3
6 8 10 10 10 2 0 7 -4 10 -10z m-54 -27 c-12 -20 -14 -14 -5 12 4 9 9 14 11
11 3 -2 0 -13 -6 -23z m-10615 -10 c-10 -10 -19 5 -10 18 6 11 8 11 12 0 2 -7
1 -15 -2 -18z m10637 -15 c-5 -25 -3 -30 8 -24 8 4 6 1 -3 -7 -10 -8 -18 -19
-18 -24 0 -5 -7 -10 -15 -10 -11 0 -13 8 -9 31 3 17 8 33 11 36 3 3 3 -5 0
-17 -3 -13 -1 -23 4 -23 5 0 9 13 9 28 0 25 7 42 16 42 2 0 1 -14 -3 -32z
m-10578 -116 c-3 -3 -11 0 -18 7 -9 10 -8 11 6 5 10 -3 15 -9 12 -12z m49 -50
c-11 -10 -12 -18 -5 -25 6 -6 11 -15 11 -20 0 -5 -10 3 -22 19 -13 16 -29 34
-38 41 -13 11 -13 12 3 13 9 0 17 -4 17 -10 0 -5 7 -10 17 -10 15 0 15 1 0 18
-26 29 -20 38 7 12 22 -20 23 -24 10 -38z m10356 -29 c0 -7 -4 -13 -9 -13 -5
0 -11 6 -14 13 -3 8 1 14 9 14 8 0 14 -6 14 -14z m-10284 -25 c4 -6 0 -16 -8
-22 -24 -19 -29 -46 -12 -69 16 -22 16 -22 10 8 -3 17 -3 24 0 18 8 -19 27
-16 20 3 -3 8 -2 12 4 9 6 -3 10 -1 10 6 0 7 3 10 6 6 4 -3 -4 -23 -16 -43
-20 -31 -21 -40 -11 -56 7 -11 11 -22 8 -24 -2 -2 -10 8 -17 24 -8 15 -23 40
-34 56 -25 37 -32 84 -10 65 11 -9 14 -8 14 10 0 22 24 29 36 9z m30 -114 c-5
-12 -2 -15 13 -11 14 3 17 0 14 -14 -6 -23 -5 -23 -30 -1 -20 17 -21 42 -1 42
6 0 7 -7 4 -16z m159 -13 c3 -5 2 -12 -3 -15 -5 -3 -9 1 -9 9 0 17 3 19 12 6z
m10115 -10 c0 -6 -4 -13 -10 -16 -5 -3 -10 1 -10 9 0 9 5 16 10 16 6 0 10 -4
10 -9z m-195 -11 c-3 -5 -1 -11 4 -11 6 -1 16 -3 21 -4 6 -1 14 -3 18 -4 14
-2 10 -31 -5 -31 -7 0 -13 -4 -13 -10 0 -5 -7 -10 -15 -10 -8 0 -15 -7 -15
-17 0 -9 -3 -13 -6 -10 -4 4 -1 20 6 37 9 22 10 34 1 43 -6 8 -8 17 -4 20 10
10 15 8 8 -3z m-9925 -90 c0 -11 -4 -20 -9 -20 -5 0 -7 9 -4 20 3 11 7 20 9
20 2 0 4 -9 4 -20z m4 -81 c-16 -18 -19 -18 -35 -3 -20 18 -16 39 5 31 7 -3
19 -1 27 4 21 13 24 -9 3 -32z m96 21 c0 -5 -7 -10 -15 -10 -8 0 -15 5 -15 10
0 6 7 10 15 10 8 0 15 -4 15 -10z m9757 -5 c0 -8 -4 -12 -9 -9 -5 3 -6 10 -3
15 9 13 12 11 12 -6z m73 -59 c0 -3 -4 -8 -10 -11 -5 -3 -10 -1 -10 4 0 6 5
11 10 11 6 0 10 -2 10 -4z m-50 -34 c0 -4 -9 -15 -20 -25 -11 -9 -20 -13 -20
-8 0 5 7 14 15 21 13 11 13 14 -2 27 -16 13 -16 13 5 3 12 -6 22 -14 22 -18z
m-9716 -20 c5 -8 -28 -42 -39 -42 -9 0 -5 21 8 35 14 16 24 18 31 7z m156 -43
c0 -5 -7 -9 -15 -9 -8 0 -15 5 -15 11 0 5 -5 7 -12 3 -6 -4 -8 -3 -5 4 8 12
47 4 47 -9z m9347 -11 c-3 -8 -6 -5 -6 6 -1 11 2 17 5 13 3 -3 4 -12 1 -19z
m29 -10 c-11 -15 -16 -18 -16 -7 0 16 21 42 28 34 2 -2 -3 -14 -12 -27z m41
-9 c-9 -6 -17 -18 -17 -28 0 -11 -8 -22 -17 -26 -14 -5 -15 -3 -6 6 6 6 9 17
7 24 -6 14 36 49 45 39 3 -3 -2 -10 -12 -15z m-9532 1 c-28 -12 -47 -12 -40 0
3 6 18 10 33 9 24 0 25 -1 7 -9z m9415 -22 c0 -5 4 -7 9 -3 5 3 12 1 15 -3 6
-11 -39 -34 -48 -25 -3 4 -6 11 -6 17 0 6 5 4 10 -4 9 -13 10 -13 10 1 0 8 -6
21 -12 28 -11 10 -10 11 5 6 9 -4 17 -11 17 -17z m-9290 -18 c0 -5 -7 -7 -15
-4 -8 4 -12 10 -9 15 6 11 24 2 24 -11z m193 -84 c3 -8 22 -20 41 -27 39 -14
48 -29 18 -29 -11 0 -27 9 -38 21 -12 14 -27 19 -45 17 -21 -3 -25 -1 -21 14
5 21 38 24 45 4z m8656 8 c41 -9 29 -24 -19 -24 -37 0 -56 10 -43 24 8 8 22 8
62 0z m-8719 -15 c0 -10 -49 -21 -61 -14 -5 4 -7 10 -4 14 5 10 65 9 65 0z
m303 -20 c39 -10 50 -36 20 -45 -10 -3 -26 -10 -36 -15 -10 -6 -32 -7 -48 -4
-26 6 -27 8 -13 22 13 14 13 17 -2 34 -16 18 -16 19 12 19 16 0 46 -5 67 -11z
m8680 -10 c-8 -8 -13 -7 -18 2 -5 8 -4 10 3 5 7 -4 12 -2 12 5 0 7 3 9 7 6 4
-4 2 -12 -4 -18z m-173 -69 c11 -8 7 -9 -15 -4 -37 8 -45 14 -19 14 10 0 26
-5 34 -10z m-110 -20 c0 -5 -9 -10 -20 -10 -11 0 -20 5 -20 10 0 6 9 10 20 10
11 0 20 -4 20 -10z m87 4 c-3 -3 -12 -4 -19 -1 -8 3 -5 6 6 6 11 1 17 -2 13
-5z"/>
<path d="M31848 8403 c7 -3 16 -2 19 1 4 3 -2 6 -13 5 -11 0 -14 -3 -6 -6z"/>
<path d="M32020 8350 c0 -5 5 -10 10 -10 6 0 10 5 10 10 0 6 -4 10 -10 10 -5
0 -10 -4 -10 -10z"/>
<path d="M32170 8186 c0 -2 8 -10 18 -17 15 -13 16 -12 3 4 -13 16 -21 21 -21
13z"/>
<path d="M22050 6299 c0 -15 18 -19 23 -6 3 8 -1 14 -9 14 -8 0 -14 -4 -14 -8z"/>
<path d="M20063 12205 c0 -8 4 -12 9 -9 5 3 6 10 3 15 -9 13 -12 11 -12 -6z"/>
<path d="M20166 12155 c4 -8 10 -15 15 -15 4 0 6 7 3 15 -4 8 -10 15 -15 15
-4 0 -6 -7 -3 -15z"/>
<path d="M20268 12143 c7 -3 16 -2 19 1 4 3 -2 6 -13 5 -11 0 -14 -3 -6 -6z"/>
<path d="M20191 12126 c2 -2 15 -9 29 -15 24 -11 24 -11 6 3 -16 13 -49 24
-35 12z"/>
<path d="M20290 12110 c0 -5 5 -10 10 -10 6 0 10 5 10 10 0 6 -4 10 -10 10 -5
0 -10 -4 -10 -10z"/>
<path d="M20325 12070 c-16 -7 -17 -9 -3 -9 9 -1 20 4 23 9 7 11 7 11 -20 0z"/>
<path d="M20403 12069 c16 -4 38 -4 50 0 15 6 6 8 -29 8 -41 0 -44 -1 -21 -8z"/>
<path d="M20395 12051 c-9 -15 13 -23 32 -11 15 9 14 10 -6 4 -16 -4 -21 -3
-17 5 4 6 5 11 2 11 -3 0 -7 -4 -11 -9z"/>
<path d="M20460 12050 c20 -13 33 -13 25 0 -3 6 -14 10 -23 10 -15 0 -15 -2
-2 -10z"/>
<path d="M20430 12020 c0 -5 4 -10 9 -10 6 0 13 5 16 10 3 6 -1 10 -9 10 -9 0
-16 -4 -16 -10z"/>
<path d="M20610 12005 c0 -9 6 -12 15 -9 8 4 15 10 15 15 0 5 -7 9 -15 9 -8 0
-15 -7 -15 -15z"/>
<path d="M20555 11991 c-2 -4 1 -8 8 -8 7 0 21 -4 31 -9 13 -5 17 -4 13 3 -9
14 -46 23 -52 14z"/>
<path d="M22345 11990 c27 -12 43 -12 25 0 -8 5 -22 9 -30 9 -10 0 -8 -3 5 -9z"/>
<path d="M20643 11983 c9 -2 23 -2 30 0 6 3 -1 5 -18 5 -16 0 -22 -2 -12 -5z"/>
<path d="M20670 11973 c-14 -3 -29 -8 -34 -13 -4 -5 11 -4 35 1 67 15 66 24
-1 12z"/>
<path d="M20780 11920 c0 -6 7 -10 15 -10 8 0 15 2 15 4 0 2 -7 6 -15 10 -8 3
-15 1 -15 -4z"/>
<path d="M21086 11919 c5 -8 -3 -10 -24 -7 -17 2 -29 1 -26 -3 2 -4 -14 -10
-36 -14 -22 -4 -40 -10 -40 -15 0 -14 27 -19 64 -13 24 4 36 2 36 -6 0 -14 46
-15 55 -1 4 6 -6 10 -22 10 -23 0 -25 2 -13 11 11 8 5 9 -25 5 -31 -4 -36 -3
-22 5 11 6 45 11 78 11 33 0 59 4 59 10 0 6 -9 8 -20 5 -11 -3 -23 -1 -26 4
-3 5 -14 9 -25 9 -13 0 -18 -4 -13 -11z m-79 -45 c-3 -3 -12 -4 -19 -1 -8 3
-5 6 6 6 11 1 17 -2 13 -5z"/>
<path d="M20864 11913 c14 -4 15 -7 6 -13 -8 -5 -9 -9 -1 -14 6 -4 11 -2 11 3
0 6 8 11 18 12 14 0 14 2 -3 9 -11 5 -27 8 -35 8 -9 0 -7 -2 4 -5z"/>
<path d="M20944 11901 c3 -5 15 -7 26 -4 28 7 25 13 -6 13 -14 0 -23 -4 -20
-9z"/>
<path d="M20808 11893 c6 -2 18 -2 25 0 6 3 1 5 -13 5 -14 0 -19 -2 -12 -5z"/>
<path d="M20908 11883 c6 -2 18 -2 25 0 6 3 1 5 -13 5 -14 0 -19 -2 -12 -5z"/>
<path d="M21235 11860 c-16 -7 -12 -9 18 -9 23 -1 36 3 32 9 -7 12 -23 12 -50
0z"/>
<path d="M23046 11476 c-22 -10 -25 -14 -12 -19 13 -5 46 15 46 29 0 5 2 5
-34 -10z"/>
<path d="M22340 11240 c-25 -10 -38 -19 -30 -19 8 0 33 8 55 18 52 25 33 25
-25 1z"/>
<path d="M22418 11253 c7 -3 16 -2 19 1 4 3 -2 6 -13 5 -11 0 -14 -3 -6 -6z"/>
<path d="M30973 8843 c9 -2 23 -2 30 0 6 3 -1 5 -18 5 -16 0 -22 -2 -12 -5z"/>
<path d="M32240 8010 c0 -5 5 -10 11 -10 5 0 7 5 4 10 -3 6 -8 10 -11 10 -2 0
-4 -4 -4 -10z"/>
<path d="M32366 7855 c-3 -8 -1 -15 4 -15 6 0 10 7 10 15 0 8 -2 15 -4 15 -2
0 -6 -7 -10 -15z"/>
<path d="M32422 7595 c-7 -14 -12 -31 -12 -38 1 -7 7 3 16 22 17 39 13 54 -4
16z"/>
<path d="M21611 7194 c0 -11 3 -14 6 -6 3 7 2 16 -1 19 -3 4 -6 -2 -5 -13z"/>
<path d="M32431 6974 c0 -11 3 -14 6 -6 3 7 2 16 -1 19 -3 4 -6 -2 -5 -13z"/>
<path d="M21741 6814 c0 -11 3 -14 6 -6 3 7 2 16 -1 19 -3 4 -6 -2 -5 -13z"/>
<path d="M21727 6763 c-4 -3 -7 -11 -7 -17 0 -6 5 -5 12 2 6 6 9 14 7 17 -3 3
-9 2 -12 -2z"/>
<path d="M32090 6385 c0 -2 6 -8 13 -14 10 -8 14 -7 14 2 0 8 -6 14 -14 14 -7
0 -13 -1 -13 -2z"/>
<path d="M32090 6350 c0 -5 5 -10 11 -10 5 0 7 5 4 10 -3 6 -8 10 -11 10 -2 0
-4 -4 -4 -10z"/>
<path d="M22346 6041 c-8 -12 18 -21 33 -11 10 5 8 9 -4 14 -21 8 -23 8 -29
-3z"/>
<path d="M25058 5813 c1086 -2 2859 -2 3940 0 1082 1 194 2 -1973 2 -2167 0
-3052 -1 -1967 -2z"/>
</g>
</svg>
